<svg xmlns:xlink="http://www.w3.org/1999/xlink" version="1.1" xmlns="http://www.w3.org/2000/svg">
    <symbol id="symbol-arrow-left" viewBox="0 0 6.34 11">
        <g><polyline style="fill:none; stroke:#000;" points="5.89 0.4 0.79 5.5 5.89 10.61"/></g>
    </symbol>
    <symbol id="symbol-arrow-right" viewBox="0 0 6.34 11">
        <g><polyline style="fill:none; stroke:#000;" points="0.47 0.4 5.57 5.5 0.47 10.61"/></g>
    </symbol>

    <symbol id="symbol-zoom" viewBox="0 0 22 22">
        <g><path style="fill: #fff;" d="M16.0318994,14.6176858 L22.4852814,21.0710678 L21.0710678,22.4852814 L14.6176858,16.0318994 C13.078015,17.2635271 11.1250137,18 9,18 C4.02943725,18 0,13.9705627 0,9 C0,4.02943725 4.02943725,0 9,0 C13.9705627,0 18,4.02943725 18,9 C18,11.1250137 17.2635271,13.078015 16.0318994,14.6176858 Z M9,16 C12.8659932,16 16,12.8659932 16,9 C16,5.13400675 12.8659932,2 9,2 C5.13400675,2 2,5.13400675 2,9 C2,12.8659932 5.13400675,16 9,16 Z M8,8 L8,5 L10,5 L10,8 L13,8 L13,10 L10,10 L10,13 L8,13 L8,10 L5,10 L5,8 L8,8 Z"/></g>
    </symbol>

    <view id="arrow-left" viewBox="0 0 6.34 11" />
    <view id="arrow-right" viewBox="11 0 6.34 11" />
    <view id="zoom" viewBox="0 11 22 22" />

    <use xlink:href="#symbol-arrow-left" width="6.34" height="11" x="0" y="0"></use>
    <use xlink:href="#symbol-arrow-right" width="6.34" height="11" x="11" y="0"></use>
    <use xlink:href="#symbol-zoom" width="22" height="22" x="0" y="11"></use>
</svg>