<svg version="1.1" xmlns="http://www.w3.org/2000/svg">
    <symbol id="delete" viewBox="0 0 9.9 9.9">
        <g><path fill="currentColor" d="M0,8.5l3.5-3.5L0,1.4L1.4,0l3.5,3.5L8.5,0l1.4,1.4L6.4,4.9l3.5,3.5L8.5,9.9L4.9,6.4L1.4,9.9L0,8.5z"/></g>
    </symbol>

    <symbol id="edit" viewBox="0 0 10.9 10.8">
        <g><path fill="currentColor" d="M0,10.8L0,10.8l0.1-3.5l5.8-5.8l3.4,3.4l-5.8,5.8L0,10.8L0,10.8z M0.8,8.3V10h1.7L0.8,8.3z M5.9,3.2L1.7,7.4 l0.8,0.8L6.7,4L5.9,3.2z M10.1,4.1L6.7,0.7c0.9-0.9,2.4-0.9,3.4,0S11.1,3.1,10.1,4.1z"/></g>
    </symbol>

    <symbol id="minus" viewBox="0 0 12 12">
        <g><rect fill="currentColor" y="5" width="12" height="2" /></g>
    </symbol>

    <symbol id="plus" viewBox="0 0 12 12">
        <g><path fill="currentColor" d="M5,12V7H0V5H5V0H7V5h5V7H7v5Z" /></g>
    </symbol>

    <symbol id="arrow-bottom" viewBox="0 0 8 5">
        <g><path fill="currentColor" d="M4,3.806,7.368,0,8,.714,4.208,5,4,4.765,3.792,5,0,.714.632,0Z"/></g>
    </symbol>

    <symbol id="select-arrow-bottom" viewBox="0 0 8 5">
        <g><path fill="currentColor" d="M4,3.806,7.368,0,8,.714,4.208,5,4,4.765,3.792,5,0,.714.632,0Z"/></g>
    </symbol>

    <symbol id="trash" viewBox="0 0 9 11">
        <g><path fill="currentColor" d="M66.5,60 L68,60 C68,59.4477153 68.4477153,59 69,59 L72,59 C72.5522847,59 73,59.4477153 73,60 L74.5,60 C74.7761424,60 75,60.2238576 75,60.5 C75,60.7761424 74.7761424,61 74.5,61 L66.5,61 C66.2238576,61 66,60.7761424 66,60.5 C66,60.2238576 66.2238576,60 66.5,60 Z M68,62 L73,62 C73.5522847,62 74,62.4477153 74,63 L74,69 C74,69.5522847 73.5522847,70 73,70 L68,70 C67.4477153,70 67,69.5522847 67,69 L67,63 C67,62.4477153 67.4477153,62 68,62 Z M68.5,64 C68.2238576,64 68,64.2238576 68,64.5 L68,67.5 C68,67.7761424 68.2238576,68 68.5,68 C68.7761424,68 69,67.7761424 69,67.5 L69,64.5 C69,64.2238576 68.7761424,64 68.5,64 Z M70.5,64 C70.2238576,64 70,64.2238576 70,64.5 L70,67.5 C70,67.7761424 70.2238576,68 70.5,68 C70.7761424,68 71,67.7761424 71,67.5 L71,64.5 C71,64.2238576 70.7761424,64 70.5,64 Z M72.5,64 C72.2238576,64 72,64.2238576 72,64.5 L72,67.5 C72,67.7761424 72.2238576,68 72.5,68 C72.7761424,68 73,67.7761424 73,67.5 L73,64.5 C73,64.2238576 72.7761424,64 72.5,64 Z" transform="translate(-66 -59)"/></g>
    </symbol>

    <symbol id="yes" viewBox="0 0 12.728 9.192">
        <g><path style="transform: translate(0, 1px);" fill="currentColor" d="M4.95,6.364,11.314,0l1.414,1.414L4.95,9.192,0,4.243,1.414,2.828Z"/></g>
    </symbol>

    <symbol id="checkbox-yes" viewBox="0 0 8.176 6.689">
        <g><path style="transform: translate(0, 0);" fill="currentColor" d="M7.024,0,8.176.96,3.569,6.689,0,2.93l1.2-.9L3.631,4.271Z"/></g>
    </symbol>

    <symbol id="phone" viewBox="0 0 13 13">
        <g><path fill="currentColor" d="M327.289999,16.9849279 C326.307476,18.6264706 325.254719,20.0087373 324.131728,21.131728 C323.008737,22.2547186 321.626471,23.3074758 319.984928,24.2899994 L319.984938,24.2900159 C318.770838,25.0166995 317.218098,24.8247 316.217571,23.824173 L315.292893,22.8994949 C314.902369,22.5089706 314.902369,21.8758057 315.292893,21.4852814 L316.588165,20.1900096 C316.978689,19.7994854 317.611854,19.7994854 318.002379,20.1900096 L318.6007,20.7883308 C320.087681,20.1716343 321.169858,19.5246005 321.847229,18.8472292 C322.5246,18.1698578 323.171634,17.0876813 323.788331,15.6006996 L323.19001,15.0023785 C322.799485,14.6118542 322.799485,13.9786892 323.19001,13.588165 L324.485281,12.2928932 C324.875806,11.9023689 325.508971,11.9023689 325.899495,12.2928932 L326.824173,13.2175713 C327.8247,14.2180983 328.0167,15.7708375 327.290016,16.9849378 Z" transform="translate(-315 -12)"/></g>
    </symbol>

    <symbol id="location" viewBox="0 0 10 14">
        <g>
            <path fill="currentColor" d="M5,17 C1.66666667,12.8409492 0,9.84094917 0,8 C0,5.23857625 2.23857625,3 5,3 C7.76142375,3 10,5.23857625 10,8 C10,9.84094917 8.33333333,12.8409492 5,17 Z M5,10 C6.1045695,10 7,9.1045695 7,8 C7,6.8954305 6.1045695,6 5,6 C3.8954305,6 3,6.8954305 3,8 C3,9.1045695 3.8954305,10 5,10 Z" transform="translate(0 -3)"/>
        </g>
    </symbol>

    <symbol id="time" viewBox="0 0 11 11">
        <g><path fill="currentColor" d="M5.5,37 C2.46243388,37 0,34.5375661 0,31.5 C0,28.4624339 2.46243388,26 5.5,26 C8.53756612,26 11,28.4624339 11,31.5 C11,34.5375661 8.53756612,37 5.5,37 Z M6,31 L6,28 L5,28 L5,32 L8,32 L8,31 L6,31 Z" transform="translate(0 -26)" /></g>
    </symbol>

    <symbol id="webasyst" viewBox="0 0 184 36">
        <g fill-rule="evenodd">
            <path fill="#000" d="M19.7609771,7.19273642 C20.4641723,8.91165804 21.154335,10.6435758 21.831486,12.3885417 C22.5086369,14.1335076 23.1987996,15.8654254 23.9019949,17.584347 L24.683319,21.0221731 L25.269312,21.0221731 L25.8553051,17.5452808 C26.3241019,15.8003149 26.8059136,14.0749081 27.3007547,12.3690086 C27.7955958,10.6631091 28.2774075,8.93770231 28.7462043,7.19273642 L33.7466786,7.19273642 L26.7538278,27.8978252 L22.8081411,27.8978252 C22.1049459,26.1007707 21.3496735,24.2191007 20.5423012,22.2527585 C19.7349289,20.2864164 18.9796565,18.4047463 18.2764613,16.6076919 L17.7295344,13.9511899 L17.0263427,13.9511899 C16.9482099,14.3939425 16.8570564,14.8431993 16.7528793,15.298974 C16.6487022,15.7547487 16.5575487,16.2040055 16.4794159,16.6467581 L12.2211995,27.8978252 L8.08018176,27.8978252 L0.892,7.19273642 L6.83006319,7.19273642 L10.1116244,17.3108836 L10.6585513,21.1003055 L11.2445444,21.1003055 L12.0258685,17.2718174 L15.737158,7.19273642 L19.7609771,7.19273642 Z M53.7095094,25.8273163 C52.8240043,26.5044672 51.6194751,27.0839435 50.0958854,27.5657624 C48.5722958,28.0475814 46.9380426,28.2884872 45.1930767,28.2884872 C41.6771006,28.2884872 39.0987569,27.3248638 37.4579681,25.397588 C35.8171792,23.4703123 34.9967971,20.8268588 34.9967971,17.4671484 C34.9967971,13.8990838 35.9213547,11.1970316 37.7704977,9.3609108 C39.6196407,7.52478998 42.2240283,6.60674334 45.5837387,6.60674334 C46.677598,6.60674334 47.7584188,6.74347369 48.8262338,7.01693849 C49.8940487,7.2904033 50.8446502,7.74617113 51.6780667,8.38425567 C52.5114833,9.02234022 53.1821131,9.88178814 53.6899763,10.9626252 C54.1978395,12.0434623 54.4517673,13.378211 54.4517673,14.9669112 C54.4517673,15.5138409 54.4192125,16.11285 54.3541018,16.7639567 C54.2889911,17.4150634 54.1783047,18.0922041 54.0220391,18.7953994 L40.3488672,18.7953994 C40.4790886,20.5664095 40.9934551,21.8751143 41.8919823,22.721553 C42.7905096,23.5679917 44.2554776,23.9912046 46.2869304,23.9912046 C47.511011,23.9912046 48.6113648,23.8154085 49.5880248,23.4638109 C50.5646848,23.1122133 51.3134462,22.75411 51.8343316,22.3894902 L53.7095094,25.8273163 Z M45.5056063,10.9040259 C43.8908618,10.9040259 42.6928435,11.3402608 41.9115155,12.2127438 C41.1301874,13.0852267 40.6744196,14.1986024 40.5441983,15.5529043 L49.3731606,15.5529043 C49.4773377,14.1204696 49.2168989,12.987561 48.5918365,12.1541445 C47.9667741,11.3207279 46.938041,10.9040259 45.5056063,10.9040259 Z M59.3741092,0.356150507 L64.8433779,0.356150507 L64.8433779,8.95071565 L65.3121724,8.95071565 C65.9372348,8.24752044 66.738084,7.69408807 67.714744,7.29040193 C68.691404,6.88671579 69.7657139,6.68487575 70.9377059,6.68487575 C73.5942211,6.68487575 75.6191325,7.55083464 77.0125008,9.28277839 C78.4058691,11.0147221 79.1025428,13.5474891 79.1025428,16.8811553 C79.1025428,18.6782097 78.848615,20.2799081 78.3407518,21.6862985 C77.8328886,23.092689 77.110171,24.2776853 76.1725774,25.2413232 C75.2349838,26.2049611 74.0890532,26.9407006 72.7347513,27.4485638 C71.3804495,27.956427 69.8568827,28.2103548 68.1640053,28.2103548 C66.2106853,28.2103548 64.4657456,28.0736245 62.9291338,27.8001597 C61.3925221,27.5266949 60.2075257,27.2206793 59.3741092,26.8821038 L59.3741092,0.356150507 Z M64.8433779,23.0536157 C65.3642632,23.3140584 65.9176956,23.4768326 66.5036916,23.5419433 C67.0896876,23.607054 67.7212516,23.6396088 68.3984026,23.6396088 C71.7841573,23.6396088 73.4770092,21.4258793 73.4770092,16.9983539 C73.4770092,15.1231667 73.1254169,13.6972645 72.4222217,12.7206044 C71.7190265,11.7439444 70.6772714,11.2556218 69.2969253,11.2556218 C68.1249333,11.2556218 67.1808428,11.5290825 66.4646254,12.0760121 C65.7484081,12.6229417 65.2079976,13.4303018 64.8433779,14.4981168 L64.8433779,23.0536157 Z"/>
            <path fill="#08E" d="M84.0465881,8.5991198 C85.2185801,8.07823446 86.6575043,7.6485105 88.3634038,7.30993503 C90.0693033,6.97135956 91.8337759,6.80207436 93.6568746,6.80207436 C95.0893093,6.80207436 96.2938385,6.97135956 97.2704986,7.30993503 C98.2471586,7.6485105 99.0219639,8.13683318 99.5949378,8.77491773 C100.167912,9.41300227 100.578103,10.1812966 100.825523,11.0798238 C101.072944,11.978351 101.196652,12.9745293 101.196652,14.0683885 C101.196652,15.3966461 101.144564,16.7118619 101.040387,18.0140753 C100.93621,19.3162886 100.884123,20.6966141 100.884123,22.155093 C100.884123,23.1447752 100.949232,24.1083986 101.079454,25.0459922 C101.209675,25.9835858 101.418026,26.8820995 101.704513,27.7415603 L97.2509654,27.7415603 L96.3524427,24.6943963 L95.8836483,24.6943963 C95.2064973,25.6059457 94.3470494,26.387262 93.3052787,27.0383687 C92.263508,27.6894753 90.9222484,28.0150238 89.2814596,28.0150238 C88.2917774,28.0150238 87.3867527,27.8717825 86.5663583,27.5852955 C85.7459639,27.2988086 85.0427793,26.8886175 84.4567832,26.3547101 C83.8707872,25.8208026 83.4150194,25.1892386 83.0894661,24.4599991 C82.7639127,23.7307596 82.6011385,22.9364214 82.6011385,22.0769606 C82.6011385,19.7590208 83.3759438,18.0075701 84.9255777,16.822556 C86.4752116,15.6375418 88.8256714,15.0450437 91.9770277,15.0450437 C92.7062672,15.0450437 93.4354958,15.1036424 94.1647352,15.2208416 C94.8939747,15.3380408 95.4018303,15.4226834 95.6883172,15.4747719 C95.76645,14.9278423 95.8055159,14.4590525 95.8055159,14.0683885 C95.8055159,13.0787064 95.558099,12.3494778 95.063258,11.880681 C94.5684169,11.4118842 93.6438593,11.1774893 92.2895574,11.1774893 C91.0394326,11.1774893 89.8218814,11.3272416 88.6368672,11.6267507 C87.4518531,11.9262598 86.403587,12.297385 85.4920377,12.7401376 L84.0465881,8.5991198 Z M91.1957036,23.6396088 C92.4197842,23.6396088 93.3964296,23.3531262 94.125669,22.7801523 C94.8549085,22.2071784 95.388808,21.6081693 95.7273834,20.9831068 L95.7273834,18.6391345 C95.5971621,18.587046 95.3953221,18.5349582 95.1218573,18.4828697 C94.8483925,18.4307812 94.5488879,18.3786934 94.2233345,18.3266049 C93.8977812,18.2745164 93.5722328,18.2354505 93.2466794,18.2094063 C92.9211261,18.183362 92.6281325,18.1703401 92.3676898,18.1703401 C90.9612994,18.1703401 89.9195443,18.4242679 89.2423934,18.9321311 C88.5652424,19.4399943 88.2266721,20.0715583 88.2266721,20.826842 C88.2266721,21.7644356 88.4936218,22.4676203 89.0275293,22.9364171 C89.5614367,23.4052139 90.2841543,23.6396088 91.1957036,23.6396088 Z"/>
            <path fill="#2C2" d="M105.9063,22.3894902 C106.27092,22.5718001 106.694133,22.7541072 107.175952,22.9364171 C107.657771,23.118727 108.178648,23.2880122 108.7386,23.4442778 C109.298552,23.6005434 109.871517,23.7307628 110.457513,23.8349398 C111.043509,23.9391169 111.636007,23.9912046 112.235025,23.9912046 C113.146575,23.9912046 113.85627,23.8479633 114.364134,23.5614764 C114.871997,23.2749895 115.125925,22.74109 115.125925,21.959762 C115.125925,21.3346996 114.787354,20.8724208 114.110203,20.5729117 C113.433052,20.2734026 112.599648,19.980409 111.609966,19.6939221 C110.880727,19.4855679 110.118943,19.2381511 109.324593,18.9516642 C108.530243,18.6651772 107.801015,18.2810301 107.136886,17.7992111 C106.472757,17.3173922 105.925835,16.6858282 105.496105,15.9045002 C105.066375,15.1231722 104.851513,14.1335049 104.851513,12.9354686 C104.851513,10.8779715 105.489588,9.30882793 106.765757,8.22799085 C108.041926,7.14715377 109.878019,6.60674334 112.274092,6.60674334 C113.836748,6.60674334 115.301716,6.74347369 116.66904,7.01693849 C118.036364,7.2904033 119.136718,7.60944078 119.970134,7.97406052 L118.837214,12.1150783 C118.160063,11.8546356 117.294104,11.5876859 116.239312,11.3142211 C115.184519,11.0407563 114.110209,10.9040259 113.01635,10.9040259 C112.1048,10.9040259 111.427659,11.0407563 110.984907,11.3142211 C110.542154,11.5876859 110.320781,12.0629866 110.320781,12.7401376 C110.320781,13.3391557 110.665863,13.7884126 111.356036,14.0879216 C112.046209,14.3874307 112.886124,14.6804243 113.875806,14.9669112 C114.605046,15.1752654 115.366829,15.4161712 116.161179,15.689636 C116.955529,15.9631008 117.678247,16.3342261 118.329353,16.8030229 C118.98046,17.2718197 119.520871,17.8773398 119.950601,18.6196014 C120.380331,19.361863 120.595193,20.2929316 120.595193,21.4128351 C120.595193,23.6005535 119.885498,25.2934055 118.466085,26.4914418 C117.046673,27.6894781 114.917586,28.2884872 112.078761,28.2884872 C110.542149,28.2884872 109.109736,28.1517569 107.781478,27.8782921 C106.45322,27.6048273 105.3724,27.2076581 104.538983,26.6867728 L105.9063,22.3894902 Z"/>
            <path fill="#E62" d="M135.149525,18.5610021 L136.008982,21.8425634 L136.399644,21.8425634 L137.141902,18.5610021 L140.618794,7.19273642 L146.205261,7.19273642 L139.407742,25.7491839 C138.834768,27.2857956 138.294357,28.6661211 137.786494,29.8902016 C137.278631,31.1142822 136.725198,32.1560372 136.12618,33.015498 C135.527162,33.8749589 134.856532,34.5325667 134.114271,34.9883414 C133.372009,35.4441161 132.493028,35.672 131.477302,35.672 C130.800151,35.672 130.155565,35.6134013 129.543525,35.4962021 C128.931484,35.3790029 128.404096,35.2032067 127.961343,34.9688083 L129.094263,30.7496581 C129.484927,30.8798795 129.888607,30.9449892 130.305316,30.9449892 C130.669935,30.9449892 131.021528,30.9059234 131.360103,30.8277906 C131.698679,30.7496578 132.011205,30.5999055 132.297692,30.3785292 C132.584179,30.1571529 132.851129,29.8446264 133.098549,29.4409403 C133.34597,29.0372541 133.560832,28.4968437 133.743142,27.8196928 L124.367253,7.19273642 L130.969441,7.19273642 L135.149525,18.5610021 Z"/>
            <path fill="#FC0" d="M149.313195,22.3894902 C149.677815,22.5718001 150.101028,22.7541072 150.582847,22.9364171 C151.064666,23.118727 151.585543,23.2880122 152.145495,23.4442778 C152.705447,23.6005434 153.278412,23.7307628 153.864408,23.8349398 C154.450404,23.9391169 155.042902,23.9912046 155.64192,23.9912046 C156.553469,23.9912046 157.263165,23.8479633 157.771028,23.5614764 C158.278892,23.2749895 158.532819,22.74109 158.532819,21.959762 C158.532819,21.3346996 158.194249,20.8724208 157.517098,20.5729117 C156.839947,20.2734026 156.006543,19.980409 155.016861,19.6939221 C154.287621,19.4855679 153.525838,19.2381511 152.731488,18.9516642 C151.937138,18.6651772 151.207909,18.2810301 150.54378,17.7992111 C149.879652,17.3173922 149.33273,16.6858282 148.903,15.9045002 C148.473269,15.1231722 148.258407,14.1335049 148.258407,12.9354686 C148.258407,10.8779715 148.896482,9.30882793 150.172651,8.22799085 C151.44882,7.14715377 153.284914,6.60674334 155.680986,6.60674334 C157.243642,6.60674334 158.70861,6.74347369 160.075934,7.01693849 C161.443258,7.2904033 162.543612,7.60944078 163.377029,7.97406052 L162.244109,12.1150783 C161.566958,11.8546356 160.700999,11.5876859 159.646206,11.3142211 C158.591413,11.0407563 157.517103,10.9040259 156.423244,10.9040259 C155.511695,10.9040259 154.834554,11.0407563 154.391802,11.3142211 C153.949049,11.5876859 153.727676,12.0629866 153.727676,12.7401376 C153.727676,13.3391557 154.072757,13.7884126 154.762931,14.0879216 C155.453104,14.3874307 156.293019,14.6804243 157.282701,14.9669112 C158.01194,15.1752654 158.773724,15.4161712 159.568074,15.689636 C160.362424,15.9631008 161.085141,16.3342261 161.736248,16.8030229 C162.387355,17.2718197 162.927765,17.8773398 163.357496,18.6196014 C163.787226,19.361863 164.002088,20.2929316 164.002088,21.4128351 C164.002088,23.6005535 163.292392,25.2934055 161.87298,26.4914418 C160.453567,27.6894781 158.32448,28.2884872 155.485655,28.2884872 C153.949044,28.2884872 152.51663,28.1517569 151.188373,27.8782921 C149.860115,27.6048273 148.779294,27.2076581 147.945878,26.6867728 L149.313195,22.3894902 Z"/>
            <path fill="#5DD" d="M168.555471,7.19273642 L171.680768,7.19273642 L171.680768,4.37996964 L177.150036,2.93452005 L177.150036,7.19273642 L182.658371,7.19273642 L182.658371,11.7634824 L177.150036,11.7634824 L177.150036,18.8735318 C177.150036,20.5143206 177.312811,21.692806 177.638364,22.4090233 C177.963917,23.1252407 178.608503,23.483344 179.572141,23.483344 C180.171159,23.483344 180.679015,23.4377672 181.095723,23.3466123 C181.512431,23.2554573 181.955177,23.105705 182.423974,22.8973509 L183.556894,26.9993024 C182.723478,27.3639222 181.766365,27.6764487 180.685528,27.9368914 C179.604691,28.197334 178.556425,28.3275534 177.540698,28.3275534 C175.509246,28.3275534 174.024745,27.8262088 173.087151,26.8235045 C172.149557,25.8208002 171.680768,24.2125909 171.680768,21.9988282 L171.680768,11.7634824 L168.555471,11.7634824 L168.555471,7.19273642 Z"/>
        </g>
    </symbol>
</svg>