<svg version="1.1" xmlns="http://www.w3.org/2000/svg">
    <symbol id="delete" viewBox="0 0 9.9 9.9">
        <g><path fill="currentColor" d="M0,8.5l3.5-3.5L0,1.4L1.4,0l3.5,3.5L8.5,0l1.4,1.4L6.4,4.9l3.5,3.5L8.5,9.9L4.9,6.4L1.4,9.9L0,8.5z"/></g>
    </symbol>

    <symbol id="edit" viewBox="0 0 10.9 10.8">
        <g><path fill="currentColor" d="M0,10.8L0,10.8l0.1-3.5l5.8-5.8l3.4,3.4l-5.8,5.8L0,10.8L0,10.8z M0.8,8.3V10h1.7L0.8,8.3z M5.9,3.2L1.7,7.4 l0.8,0.8L6.7,4L5.9,3.2z M10.1,4.1L6.7,0.7c0.9-0.9,2.4-0.9,3.4,0S11.1,3.1,10.1,4.1z"/></g>
    </symbol>

    <symbol id="minus" viewBox="0 0 12 12">
        <g><rect fill="currentColor" y="5" width="12" height="2" /></g>
    </symbol>

    <symbol id="plus" viewBox="0 0 12 12">
        <g><path fill="currentColor" d="M5,12V7H0V5H5V0H7V5h5V7H7v5Z" /></g>
    </symbol>

    <symbol id="arrow-bottom" viewBox="0 0 8 5">
        <g><path fill="currentColor" d="M4,3.806,7.368,0,8,.714,4.208,5,4,4.765,3.792,5,0,.714.632,0Z"/></g>
    </symbol>

    <symbol id="select-arrow-bottom" viewBox="0 0 8 5">
        <g><path fill="currentColor" d="M4,3.806,7.368,0,8,.714,4.208,5,4,4.765,3.792,5,0,.714.632,0Z"/></g>
    </symbol>

    <symbol id="trash" viewBox="0 0 9 11">
        <g><path fill="currentColor" d="M66.5,60 L68,60 C68,59.4477153 68.4477153,59 69,59 L72,59 C72.5522847,59 73,59.4477153 73,60 L74.5,60 C74.7761424,60 75,60.2238576 75,60.5 C75,60.7761424 74.7761424,61 74.5,61 L66.5,61 C66.2238576,61 66,60.7761424 66,60.5 C66,60.2238576 66.2238576,60 66.5,60 Z M68,62 L73,62 C73.5522847,62 74,62.4477153 74,63 L74,69 C74,69.5522847 73.5522847,70 73,70 L68,70 C67.4477153,70 67,69.5522847 67,69 L67,63 C67,62.4477153 67.4477153,62 68,62 Z M68.5,64 C68.2238576,64 68,64.2238576 68,64.5 L68,67.5 C68,67.7761424 68.2238576,68 68.5,68 C68.7761424,68 69,67.7761424 69,67.5 L69,64.5 C69,64.2238576 68.7761424,64 68.5,64 Z M70.5,64 C70.2238576,64 70,64.2238576 70,64.5 L70,67.5 C70,67.7761424 70.2238576,68 70.5,68 C70.7761424,68 71,67.7761424 71,67.5 L71,64.5 C71,64.2238576 70.7761424,64 70.5,64 Z M72.5,64 C72.2238576,64 72,64.2238576 72,64.5 L72,67.5 C72,67.7761424 72.2238576,68 72.5,68 C72.7761424,68 73,67.7761424 73,67.5 L73,64.5 C73,64.2238576 72.7761424,64 72.5,64 Z" transform="translate(-66 -59)"/></g>
    </symbol>

    <symbol id="yes" viewBox="0 0 12.728 9.192">
        <g><path style="transform: translate(0, 1px);" fill="currentColor" d="M4.95,6.364,11.314,0l1.414,1.414L4.95,9.192,0,4.243,1.414,2.828Z"/></g>
    </symbol>

    <symbol id="checkbox-yes" viewBox="0 0 8.176 6.689">
        <g><path style="transform: translate(0, 0);" fill="currentColor" d="M7.024,0,8.176.96,3.569,6.689,0,2.93l1.2-.9L3.631,4.271Z"/></g>
    </symbol>

    <symbol id="phone" viewBox="0 0 13 13">
        <g><path fill="currentColor" d="M327.289999,16.9849279 C326.307476,18.6264706 325.254719,20.0087373 324.131728,21.131728 C323.008737,22.2547186 321.626471,23.3074758 319.984928,24.2899994 L319.984938,24.2900159 C318.770838,25.0166995 317.218098,24.8247 316.217571,23.824173 L315.292893,22.8994949 C314.902369,22.5089706 314.902369,21.8758057 315.292893,21.4852814 L316.588165,20.1900096 C316.978689,19.7994854 317.611854,19.7994854 318.002379,20.1900096 L318.6007,20.7883308 C320.087681,20.1716343 321.169858,19.5246005 321.847229,18.8472292 C322.5246,18.1698578 323.171634,17.0876813 323.788331,15.6006996 L323.19001,15.0023785 C322.799485,14.6118542 322.799485,13.9786892 323.19001,13.588165 L324.485281,12.2928932 C324.875806,11.9023689 325.508971,11.9023689 325.899495,12.2928932 L326.824173,13.2175713 C327.8247,14.2180983 328.0167,15.7708375 327.290016,16.9849378 Z" transform="translate(-315 -12)"/></g>
    </symbol>

    <symbol id="location" viewBox="0 0 10 14">
        <g><path fill="currentColor" d="M5,17 C1.66666667,12.8409492 0,9.84094917 0,8 C0,5.23857625 2.23857625,3 5,3 C7.76142375,3 10,5.23857625 10,8 C10,9.84094917 8.33333333,12.8409492 5,17 Z M5,10 C6.1045695,10 7,9.1045695 7,8 C7,6.8954305 6.1045695,6 5,6 C3.8954305,6 3,6.8954305 3,8 C3,9.1045695 3.8954305,10 5,10 Z" transform="translate(0 -3)"/></g>
    </symbol>

    <symbol id="time" viewBox="0 0 11 11">
        <g><path fill="currentColor" d="M5.5,37 C2.46243388,37 0,34.5375661 0,31.5 C0,28.4624339 2.46243388,26 5.5,26 C8.53756612,26 11,28.4624339 11,31.5 C11,34.5375661 8.53756612,37 5.5,37 Z M6,31 L6,28 L5,28 L5,32 L8,32 L8,31 L6,31 Z" transform="translate(0 -26)" /></g>
    </symbol>

    <symbol id="arrow-left" viewBox="0 0 6.34 11">
        <g><polyline style="fill:none; stroke:currentColor;" points="5.89 0.4 0.79 5.5 5.89 10.61"/></g>
    </symbol>

    <symbol id="arrow-right" viewBox="0 0 6.34 11">
        <g><polyline style="fill:none; stroke:currentColor;" points="0.47 0.4 5.57 5.5 0.47 10.61"/></g>
    </symbol>

    <symbol id="star-empty" viewBox="0 0 11 11">
        <g><polygon style="fill: #b0b0b0;" points="5.5,0 7.2,3.6 11,4.2 8.2,7 8.9,11 5.5,9.1 2.1,11 2.8,7 0,4.2 3.8,3.6 " /></g>
    </symbol>

    <symbol id="star-half" viewBox="0 0 11 11">
        <g>
            <polygon style="fill: #b0b0b0;" points="5.5,0 7.2,3.6 11,4.2 8.2,7 8.9,11 5.5,9.1 2.1,11 2.8,7 0,4.2 3.8,3.6 "/>
            <polygon style="fill: #ffbb36;" points="5.5,9.1 5.5,0 3.8,3.6 0,4.2 2.8,7 2.1,11 "/>
        </g>
    </symbol>

    <symbol id="star" viewBox="0 0 11 11">
        <g><polygon style="fill: #ffbb36;" points="5.5,0 7.2,3.6 11,4.2 8.2,7 8.9,11 5.5,9.1 2.1,11 2.8,7 0,4.2 3.8,3.6 " /></g>
    </symbol>

    <symbol id="cart" viewBox="0 0 14 14">
        <path fill="currentColor" transform="translate(-10 -7)" id="b" d="M16.563 21.087a1.32 1.32 0 0 1-1.313-1.33 1.32 1.32 0 0 1 1.313-1.328 1.32 1.32 0 0 1 1.312 1.329 1.32 1.32 0 0 1-1.313 1.329zm4.375 0a1.32 1.32 0 0 1-1.313-1.33 1.32 1.32 0 0 1 1.313-1.328 1.32 1.32 0 0 1 1.312 1.329 1.32 1.32 0 0 1-1.313 1.329zM15.477 17L12.74 8.562H10V7h3.957l1.217 3.125H24L21.87 17h-6.392z"/>
    </symbol>

</svg>