<svg width="124" height="110" viewBox="0 0 124 110" fill="none" xmlns="http://www.w3.org/2000/svg">
    <path d="M124 48.1251C124 43.6357 121.124 39.8179 117.111 38.4017V13.75C117.111 6.15614 110.943 0 103.333 0C89.3435 12.0313 72.7572 27.5 44.7778 27.5H10.3333C4.62632 27.5 0 32.117 0 37.8126V58.4376C0 64.1331 4.62632 68.7501 10.3333 68.7501H19.6469C15.6122 82.6398 20.1806 93.7534 23.6971 104.724C24.0635 105.867 24.8172 106.849 25.8331 107.491C30.3066 110.317 40.5484 110.855 46.0204 108.597C49.4747 107.172 50.3173 102.706 47.6397 100.103C43.6553 96.2304 41.1521 92.1733 43.3783 87.0282C43.5532 86.6246 43.6242 86.1837 43.585 85.7457C43.5457 85.3077 43.3973 84.8865 43.1533 84.5203C39.6423 79.2182 42.3824 71.177 49.2924 68.89C74.5729 70.4446 90.1133 84.8808 103.333 96.2501C110.943 96.2501 117.111 90.094 117.111 82.5001V57.8485C121.124 56.4322 124 52.6145 124 48.1251ZM103.333 78.1721C91.5772 68.5086 76.4165 58.2045 55.1111 55.6173V40.6326C76.4165 38.0455 91.5772 27.7415 103.333 18.0778V78.1721Z"
          fill="black" style="opacity: 0.1"/>
</svg>