<?xml version="1.0" encoding="UTF-8"?>
<!-- Generated by Pixelmator Pro 3.3.2 -->
<svg width="239" height="120" viewBox="0 0 239 120" xmlns="http://www.w3.org/2000/svg" xmlns:xlink="http://www.w3.org/1999/xlink">
    <path id="path60" fill="#ffffff" stroke="none" d="M 206.664627 34.253693 L 206.664627 63.591694 L 196.188614 63.591694 L 196.188614 43.011688 L 186.101624 43.011688 L 186.101624 63.591694 L 175.625626 63.591694 L 175.625626 34.251694 L 206.664627 34.251694 Z"/>
    <path id="path62" fill="#ffffff" fill-rule="evenodd" stroke="none" d="M 154.110626 64.640694 C 163.488617 64.640694 170.452621 58.890694 170.452621 50.173691 C 170.452621 41.736694 165.314621 36.258698 156.727615 36.258698 C 152.764618 36.258698 149.494614 37.653687 147.031616 40.060692 C 147.619614 35.085693 151.826614 31.45369 156.458618 31.45369 C 157.527618 31.45369 165.575623 31.436691 165.575623 31.436691 L 170.126617 22.727692 C 170.126617 22.727692 160.022614 22.957687 155.325623 22.957687 C 144.593613 23.144691 137.34462 32.899689 137.34462 44.747696 C 137.34462 58.550694 144.414627 64.640694 154.110626 64.640694 Z M 154.167618 43.972687 C 157.649612 43.972687 160.063614 46.260696 160.063614 50.172691 C 160.063614 53.693695 157.918625 56.594692 154.167618 56.602692 C 150.57962 56.602692 148.165619 53.914688 148.165619 50.232697 C 148.165619 46.319687 150.57962 43.972687 154.167618 43.972687 Z"/>
    <path id="path64" fill="#ffffff" stroke="none" d="M 128.817627 53.769691 C 128.817627 53.769691 126.34362 55.195694 122.648621 55.465691 C 118.40062 55.59169 114.615623 52.908691 114.615623 48.141693 C 114.615623 43.491692 117.95562 40.826691 122.541618 40.826691 C 125.353622 40.826691 129.073624 42.775696 129.073624 42.775696 C 129.073624 42.775696 131.795624 37.780693 133.205627 35.282692 C 130.623627 33.325691 127.184624 32.252693 123.184624 32.252693 C 113.089622 32.252693 105.270622 38.834686 105.270622 48.082687 C 105.270622 57.448692 112.619621 63.877693 123.184624 63.683693 C 126.137619 63.573692 130.211624 62.536694 132.694626 60.941692 Z"/>
    <path id="path66" fill="#5b57a2" stroke="none" d="M 0 26.120003 L 14.532 52.095001 L 14.532 67.939003 L 0.017 93.862999 L 0 26.120003 Z"/>
    <path id="path68" fill="#d90751" stroke="none" d="M 55.797001 42.643005 L 69.414001 34.296997 L 97.281998 34.270996 L 55.797001 59.685001 L 55.797001 42.643005 Z"/>
    <path id="path70" fill="#fab718" stroke="none" d="M 55.720001 25.966995 L 55.797001 60.356998 L 41.230999 51.406998 L 41.230999 0 L 55.721001 25.966995 Z"/>
    <path id="path72" fill="#ed6f26" stroke="none" d="M 97.281998 34.270996 L 69.413002 34.296997 L 55.720001 25.966995 L 41.230999 0 L 97.280998 34.270996 Z"/>
    <path id="path74" fill="#63b22f" stroke="none" d="M 55.797001 94.007004 L 55.797001 77.321999 L 41.230999 68.542 L 41.238998 120 L 55.797001 94.007004 Z"/>
    <path id="path76" fill="#1487c9" stroke="none" d="M 69.379997 85.737 L 14.531 52.095001 L 0 26.120003 L 97.223 85.703003 L 69.378998 85.737 Z"/>
    <path id="path78" fill="#017f36" stroke="none" d="M 41.240002 120 L 55.796001 94.007004 L 69.378998 85.737 L 97.222 85.703003 L 41.240002 120 Z"/>
    <path id="path80" fill="#984995" stroke="none" d="M 0.017 93.862999 L 41.349998 68.542999 L 27.454 60.016998 L 14.532 67.939003 L 0.017 93.862999 Z"/>
    <path id="path82" fill="#ffffff" stroke="none" d="M 114.618622 83.336693 C 114.298622 83.74469 113.877617 84.052689 113.37262 84.260689 C 112.854485 84.471619 112.300041 84.578979 111.740623 84.576691 C 111.184242 84.584229 110.631065 84.491409 110.10762 84.302689 C 109.637482 84.131935 109.207794 83.865677 108.845619 83.520691 C 108.488007 83.175117 108.207237 82.758057 108.021622 82.296692 C 107.820679 81.791313 107.720467 81.251518 107.726624 80.707695 C 107.726624 80.167694 107.819618 79.667694 108.012619 79.193695 C 108.197617 78.718689 108.466621 78.311691 108.803619 77.969688 C 109.140617 77.620689 109.544617 77.354691 109.998619 77.14669 C 110.461617 76.946693 110.966621 76.838692 111.521622 76.838692 C 112.119621 76.838692 112.674622 76.913689 113.179619 77.062691 C 113.684624 77.212692 114.113617 77.462692 114.466621 77.812691 L 113.852623 78.852692 C 113.555664 78.583549 113.205902 78.379211 112.825623 78.252693 C 112.464088 78.136215 112.086449 78.077492 111.706619 78.07869 C 111.370621 78.07869 111.050621 78.144691 110.739616 78.269691 C 110.433151 78.393135 110.153122 78.574051 109.914619 78.802689 C 109.670868 79.037842 109.47879 79.321198 109.350616 79.634689 C 109.207619 79.958694 109.140617 80.316689 109.140617 80.715691 C 109.140617 81.123695 109.215622 81.489693 109.35862 81.805695 C 109.502617 82.130692 109.695618 82.405693 109.939621 82.637695 C 110.183617 82.871689 110.46962 83.045692 110.797623 83.162689 C 111.126617 83.287689 111.471619 83.345695 111.841621 83.345695 C 112.295624 83.345695 112.708618 83.253693 113.061623 83.07869 C 113.411407 82.90976 113.725708 82.67556 113.987617 82.388695 Z M 116.351624 84.401695 L 116.351624 76.996689 L 117.681618 76.996689 L 117.681618 82.513695 L 122.006622 76.996689 L 123.336617 76.996689 L 123.336617 84.402695 L 122.006622 84.402695 L 122.006622 78.885689 L 117.681618 84.402695 L 116.351624 84.402695 Z M 132.146622 83.336693 C 131.819427 83.748123 131.390182 84.066689 130.901627 84.260689 C 130.383102 84.471527 129.828354 84.578873 129.268616 84.576691 C 128.71257 84.584152 128.159744 84.491333 127.63662 84.302689 C 127.166176 84.13195 126.73616 83.865707 126.373619 83.520691 C 126.016006 83.175117 125.735237 82.758057 125.549622 82.296692 C 125.348679 81.791313 125.248466 81.251518 125.254623 80.707695 C 125.254623 80.167694 125.347618 79.667694 125.540619 79.193695 C 125.726624 78.718689 125.995621 78.311691 126.331619 77.969688 C 126.668617 77.620689 127.072617 77.354691 127.526619 77.14669 C 128.006165 76.935516 128.525696 76.830452 129.049622 76.838692 C 129.647614 76.838692 130.202621 76.913689 130.707626 77.062691 C 131.212616 77.212692 131.641617 77.462692 131.995621 77.812691 L 131.380615 78.852692 C 131.084167 78.583389 130.734695 78.379013 130.354614 78.252693 C 129.993073 78.136284 129.615448 78.07756 129.235626 78.07869 C 128.567154 78.080849 127.925156 78.340088 127.442619 78.802689 C 127.200989 79.039619 127.009224 79.32251 126.878616 79.634689 C 126.735619 79.958694 126.668617 80.316689 126.668617 80.715691 C 126.668617 81.123695 126.744621 81.489693 126.887619 81.805695 C 127.030617 82.130692 127.223618 82.405693 127.467621 82.637695 C 127.711617 82.871689 127.998619 83.045692 128.326614 83.162689 C 128.654617 83.278694 128.999619 83.345695 129.369614 83.345695 C 129.824615 83.345695 130.228622 83.253693 130.589615 83.07869 C 130.939407 82.90976 131.253708 82.67556 131.515625 82.388695 Z M 132.828613 76.996689 L 139.652618 76.996689 L 139.652618 78.311691 L 136.909622 78.311691 L 136.909622 84.401695 L 135.57962 84.401695 L 135.57962 78.311691 L 132.836624 78.311691 L 132.836624 76.996689 Z"/>
    <path id="path84" fill="#ffffff" fill-rule="evenodd" stroke="none" d="M 145.863617 84.32769 C 146.368622 84.169693 146.797623 83.927689 147.167618 83.595695 L 146.763626 82.56369 C 146.519623 82.780693 146.19162 82.963692 145.796616 83.113693 C 145.40062 83.263695 144.95462 83.337692 144.466614 83.337692 C 143.734619 83.337692 143.128616 83.14669 142.648621 82.755692 C 142.169617 82.363693 141.908615 81.815689 141.849625 81.115692 L 147.605621 81.115692 C 147.664627 80.857689 147.689621 80.566689 147.689621 80.225693 C 147.689621 79.71769 147.596619 79.260689 147.411621 78.844688 C 147.23941 78.440727 146.987762 78.075493 146.671616 77.770691 C 146.351105 77.468765 145.973343 77.234146 145.560623 77.080688 C 145.128647 76.913071 144.668976 76.828255 144.205627 76.830688 C 143.582626 76.830688 143.035614 76.93869 142.556625 77.138695 C 142.103745 77.329216 141.694183 77.60952 141.352615 77.962692 C 141.021042 78.313972 140.766296 78.730492 140.604614 79.185692 C 140.426849 79.670441 140.338409 80.183403 140.343613 80.699692 C 140.343613 81.282692 140.444626 81.81469 140.629623 82.289696 C 140.809616 82.749817 141.084976 83.166626 141.437622 83.512695 C 141.782623 83.852692 142.202621 84.111694 142.699615 84.294693 C 143.23172 84.483383 143.793091 84.576157 144.35762 84.568695 C 144.868881 84.565544 145.376694 84.484619 145.863617 84.32869 Z M 142.49762 78.627693 C 142.909622 78.253693 143.456619 78.070694 144.146622 78.070694 C 144.794617 78.070694 145.31662 78.245689 145.695618 78.595695 C 146.074615 78.944695 146.27562 79.427689 146.309616 80.042694 L 141.765625 80.042694 C 141.830002 79.498169 142.090164 78.995621 142.49762 78.628693 Z"/>
    <path id="path86" fill="#ffffff" stroke="none" d="M 149.498627 76.996689 L 150.710617 76.996689 L 153.588623 80.666695 L 156.314621 76.996689 L 157.492615 76.996689 L 157.492615 84.402695 L 156.16362 84.402695 L 156.16362 79.002693 L 153.571625 82.43869 L 153.520615 82.43869 L 150.828613 79.001694 L 150.828613 84.401695 L 149.498627 84.401695 Z"/>
    <path id="path88" fill="#ffffff" fill-rule="evenodd" stroke="none" d="M 161.110626 77.02169 C 160.707001 77.127121 160.321411 77.292282 159.966614 77.511688 L 160.319626 78.561691 C 160.62262 78.41169 160.925613 78.28669 161.228622 78.178696 C 161.531616 78.069695 161.918625 78.019691 162.381622 78.019691 C 162.751617 78.019691 163.046616 78.07869 163.273621 78.194695 C 163.500626 78.302689 163.668625 78.469688 163.786621 78.669693 C 163.904617 78.86969 163.980621 79.11869 164.022614 79.409691 C 164.064621 79.700691 164.081619 80.016693 164.081619 80.358688 C 163.809509 80.16906 163.499283 80.041084 163.172623 79.983688 C 162.85672 79.920891 162.53569 79.887421 162.213623 79.88369 C 161.817627 79.88369 161.447617 79.942696 161.093613 80.041695 C 160.740616 80.141693 160.437622 80.291695 160.193619 80.491692 C 159.94455 80.691345 159.743301 80.944183 159.604614 81.231689 C 159.45639 81.546471 159.381516 81.890785 159.38562 82.238693 C 159.38562 82.962692 159.596619 83.528694 160.016617 83.928696 C 160.437622 84.32769 160.992615 84.526695 161.682617 84.526695 C 162.305618 84.526695 162.802628 84.418694 163.180618 84.20269 C 163.559616 83.985695 163.862625 83.736694 164.081619 83.45369 L 164.081619 84.41069 L 165.326614 84.41069 L 165.326614 79.867691 C 165.326614 78.901695 165.116623 78.153694 164.687622 77.628693 C 164.266617 77.104691 163.517624 76.838692 162.457626 76.838692 C 161.985626 76.838692 161.539627 76.904694 161.110626 77.02169 Z M 163.333618 83.02169 C 163.030624 83.237694 162.634613 83.336693 162.146622 83.336693 C 161.717621 83.336693 161.380615 83.228691 161.145615 83.020691 C 160.909622 82.804695 160.791626 82.52169 160.791626 82.171692 C 160.791626 81.964691 160.833618 81.789696 160.92662 81.631691 C 161.019623 81.473694 161.145615 81.348694 161.28862 81.248695 C 161.445053 81.144112 161.618713 81.06794 161.80162 81.023689 C 161.995621 80.973694 162.188614 80.948692 162.390625 80.948692 C 163.047623 80.948692 163.610626 81.106689 164.073624 81.43969 L 164.073624 82.379692 C 163.855438 82.624184 163.606735 82.839615 163.333618 83.020691 Z M 177.06662 74.391693 C 177.335617 74.267693 177.587616 74.059692 177.823624 73.751694 L 177.099625 72.711693 C 176.914627 72.961693 176.70462 73.135689 176.468613 73.227692 C 176.218506 73.325447 175.959213 73.397812 175.694626 73.443695 L 175.442627 73.488693 C 175.223618 73.526695 174.988617 73.568695 174.735626 73.610695 C 174.32988 73.685738 173.934448 73.808594 173.557617 73.976692 C 172.959625 74.234695 172.480621 74.583694 172.118622 75.024689 C 171.756622 75.465691 171.470627 75.964691 171.276627 76.514694 C 171.080109 77.071861 170.947586 77.649574 170.881622 78.236694 C 170.813614 78.836693 170.780624 79.409691 170.780624 79.958694 C 170.780624 80.666695 170.87262 81.306694 171.057617 81.880692 C 171.243622 82.455688 171.503616 82.937691 171.848618 83.32869 C 172.193619 83.728691 172.606613 84.028694 173.09462 84.24469 C 173.582626 84.460693 174.129623 84.568695 174.743622 84.568695 C 175.307617 84.568695 175.82962 84.460693 176.300613 84.260689 C 176.7547 84.068527 177.166519 83.788879 177.512619 83.437691 C 177.848618 83.095695 178.118622 82.687691 178.303619 82.23069 C 178.496613 81.77269 178.589615 81.281693 178.589615 80.765694 C 178.589615 80.208694 178.505615 79.701691 178.345627 79.251694 C 178.198257 78.822685 177.963287 78.429016 177.655624 78.095695 C 177.347321 77.767929 176.970779 77.511894 176.552628 77.345695 C 176.092026 77.164276 175.600616 77.073936 175.105621 77.079689 C 174.785614 77.079689 174.474625 77.121689 174.171616 77.204689 C 173.876877 77.287773 173.593933 77.408073 173.32962 77.562691 C 173.073135 77.709595 172.838226 77.891319 172.631622 78.102692 C 172.429626 78.311691 172.261627 78.544693 172.143616 78.810692 L 172.109619 78.810692 C 172.13562 78.469688 172.177628 78.120689 172.252625 77.762695 C 172.328613 77.404694 172.437622 77.062691 172.581619 76.738693 C 172.724625 76.414696 172.909622 76.122688 173.136627 75.856689 C 173.38002 75.588196 173.678482 75.375359 174.011627 75.232689 C 174.377975 75.058212 174.76561 74.932472 175.164627 74.858688 L 175.428619 74.810692 C 175.69162 74.762695 175.942627 74.71669 176.182617 74.666695 C 176.502625 74.600693 176.796616 74.516693 177.06662 74.392693 Z M 172.387619 81.506691 C 172.257492 81.086578 172.195053 80.64843 172.202621 80.208694 C 172.259003 79.956306 172.361755 79.716583 172.505615 79.501694 C 172.648621 79.276695 172.833618 79.07769 173.052628 78.901695 C 173.546844 78.514519 174.157822 78.306511 174.785614 78.311691 C 175.568619 78.311691 176.157623 78.552689 176.569626 79.027695 C 176.98262 79.509689 177.184616 80.108688 177.184616 80.832695 C 177.184616 81.190689 177.116623 81.515694 176.999619 81.81469 C 176.769867 82.410583 176.308411 82.887917 175.720627 83.137695 C 175.417618 83.270691 175.088623 83.337692 174.718613 83.337692 C 174.348618 83.337692 174.011627 83.262695 173.700623 83.112694 C 173.391525 82.965698 173.118439 82.752693 172.90062 82.488693 C 172.672562 82.194481 172.49884 81.861931 172.387619 81.506691 Z M 188.78862 76.996689 L 187.458618 76.996689 L 187.458618 84.402695 L 188.78862 84.402695 Z M 180.507614 76.996689 L 181.837616 76.996689 L 181.837616 79.218689 L 183.06662 79.218689 C 183.646622 79.218689 184.117615 79.293694 184.496613 79.434692 C 184.875626 79.576691 185.178619 79.767693 185.405624 80.000694 C 185.632614 80.233688 185.792618 80.50869 185.88562 80.815689 C 185.977615 81.123695 186.028625 81.43969 186.028625 81.77269 C 186.028625 82.10569 185.977615 82.422691 185.868622 82.738693 C 185.767624 83.054695 185.590622 83.32869 185.354614 83.57869 C 185.119614 83.82869 184.799622 84.028694 184.395615 84.178696 C 183.991623 84.32769 183.503616 84.41069 182.914627 84.41069 L 180.499619 84.41069 L 180.499619 76.996689 Z M 181.837616 80.457695 L 181.837616 83.170692 L 182.805618 83.170692 C 183.470627 83.170692 183.94162 83.054695 184.210617 82.820694 C 184.480621 82.587692 184.614624 82.255692 184.614624 81.81469 C 184.614624 81.364693 184.471619 81.024689 184.202621 80.790695 C 183.924622 80.557693 183.461624 80.440689 182.822617 80.440689 L 181.837616 80.440689 Z"/>
    <path id="path90" fill="#ffffff" stroke="none" d="M 197.582626 83.336693 C 197.262619 83.74469 196.841614 84.052689 196.336624 84.260689 C 195.818451 84.471519 195.264023 84.578873 194.70462 84.576691 C 194.148239 84.584229 193.595062 84.491409 193.071625 84.302689 C 192.601349 84.132195 192.171616 83.865913 191.809616 83.520691 C 191.452011 83.174904 191.170959 82.757919 190.984619 82.296692 C 190.784485 81.791107 190.684631 81.251411 190.690613 80.707695 C 190.690613 80.167694 190.782623 79.667694 190.976624 79.193695 C 191.161621 78.718689 191.430618 78.311691 191.767624 77.969688 C 192.104614 77.620689 192.507614 77.354691 192.962616 77.14669 C 193.442139 76.935425 193.961685 76.830353 194.485626 76.838692 C 195.082626 76.838692 195.638626 76.913689 196.143616 77.062691 C 196.648621 77.212692 197.077621 77.462692 197.430618 77.812691 L 196.81662 78.852692 C 196.519653 78.583549 196.169907 78.379211 195.789627 78.252693 C 195.428085 78.136215 195.050446 78.077492 194.670624 78.07869 C 194.334625 78.07869 194.014618 78.144691 193.702621 78.269691 C 193.396469 78.393158 193.11676 78.574081 192.878616 78.802689 C 192.636658 79.039337 192.444839 79.322296 192.314621 79.634689 C 192.171616 79.958694 192.104614 80.316689 192.104614 80.715691 C 192.104614 81.123695 192.179626 81.489693 192.322617 81.805695 C 192.465622 82.130692 192.659622 82.405693 192.903625 82.637695 C 193.147614 82.871689 193.433624 83.045692 193.761627 83.162689 C 194.090622 83.278694 194.435623 83.345695 194.805618 83.345695 C 195.259613 83.345695 195.66362 83.253693 196.02562 83.07869 C 196.375412 82.90976 196.689713 82.67556 196.951614 82.388695 Z M 198.263626 76.996689 L 205.088623 76.996689 L 205.088623 78.311691 L 202.34462 78.311691 L 202.34462 84.401695 L 201.015625 84.401695 L 201.015625 78.311691 L 198.272614 78.311691 L 198.272614 76.996689 Z"/>
    <path id="path92" fill="#ffffff" fill-rule="evenodd" stroke="none" d="M 207.865616 76.997688 L 206.535614 76.997688 L 206.535614 87.697693 L 207.865616 87.697693 L 207.865616 84.061691 C 208.134613 84.236694 208.45462 84.361694 208.824615 84.444695 C 209.194626 84.527695 209.581619 84.568695 209.977615 84.568695 C 210.56662 84.568695 211.096619 84.460693 211.576614 84.261688 C 212.036987 84.064766 212.454208 83.779373 212.804626 83.421692 C 213.149612 83.062691 213.410614 82.64669 213.595627 82.155693 C 213.780624 81.665695 213.873627 81.140694 213.873627 80.583694 C 213.873627 80.033691 213.789627 79.526695 213.629623 79.068695 C 213.478958 78.633736 213.244537 78.232513 212.939621 77.887695 C 212.640366 77.551376 212.26918 77.286827 211.853622 77.113693 C 211.399414 76.918503 210.90892 76.822037 210.414627 76.830688 C 209.893616 76.830688 209.405624 76.930695 208.942627 77.130692 C 208.479614 77.330688 208.117615 77.570694 207.865616 77.870689 Z M 208.791626 78.370689 C 209.170624 78.170692 209.582626 78.070694 210.028625 78.070694 C 210.415619 78.070694 210.76062 78.128693 211.072617 78.253693 C 211.375626 78.378693 211.627625 78.553696 211.838623 78.78669 C 212.048615 79.019691 212.208618 79.28669 212.309616 79.601692 C 212.418625 79.917694 212.46962 80.259689 212.46962 80.63369 C 212.46962 81.033691 212.401627 81.390694 212.284622 81.723694 C 212.174316 82.039413 211.999237 82.328598 211.770615 82.572693 C 211.54097 82.81385 211.262878 83.003677 210.95462 83.129692 C 210.610977 83.273621 210.241135 83.34446 209.868622 83.337692 C 209.507614 83.337692 209.170624 83.296692 208.850616 83.213692 C 208.500275 83.11837 208.167877 82.966362 207.866623 82.763695 L 207.866623 79.093689 C 208.101624 78.811691 208.41362 78.570694 208.791626 78.370689 Z M 224.072617 76.996689 L 222.742615 76.996689 L 222.742615 84.402695 L 224.072617 84.402695 Z M 215.783615 76.996689 L 217.113617 76.996689 L 217.113617 79.218689 L 218.341614 79.218689 C 218.922623 79.218689 219.393616 79.293694 219.772614 79.434692 C 220.151627 79.576691 220.45462 79.767693 220.681625 80.000694 C 220.908615 80.233688 221.068619 80.50869 221.160614 80.815689 C 221.253616 81.123695 221.303619 81.43969 221.303619 81.77269 C 221.303619 82.10569 221.253616 82.422691 221.144623 82.738693 C 221.043625 83.054695 220.866623 83.32869 220.630615 83.57869 C 220.395615 83.82869 220.075623 84.028694 219.671616 84.178696 C 219.267624 84.32769 218.779617 84.41069 218.190613 84.41069 L 215.77562 84.41069 L 215.77562 76.996689 Z M 217.12262 80.457695 L 217.12262 83.170692 L 218.090622 83.170692 C 218.754623 83.170692 219.226624 83.054695 219.495621 82.820694 C 219.764618 82.587692 219.899612 82.255692 219.899612 81.81469 C 219.899612 81.364693 219.756622 81.024689 219.487625 80.790695 C 219.209625 80.557693 218.746613 80.440689 218.10762 80.440689 L 217.12262 80.440689 Z"/>
    <path id="path94" fill="#ffffff" stroke="none" d="M 230.451614 80.566689 L 233.295624 84.402695 L 231.66362 84.402695 L 229.466614 81.406693 L 227.236618 84.402695 L 225.688614 84.402695 L 228.515625 80.63269 L 225.856613 76.996689 L 227.489624 76.996689 L 229.517624 79.792694 L 231.578613 76.996689 L 233.127625 76.996689 Z M 113.634621 93.555695 L 109.553619 93.555695 L 109.553619 99.729691 L 108.223618 99.729691 L 108.223618 92.324692 L 114.963623 92.324692 L 114.963623 99.729691 L 113.634621 99.729691 Z M 122.51162 93.638695 L 119.88662 93.638695 L 119.80162 94.886688 C 119.709618 95.943695 119.583618 96.792694 119.406616 97.440689 C 119.229622 98.090691 119.01062 98.589691 118.758621 98.93869 C 118.506622 99.288689 118.211617 99.529694 117.874619 99.64669 C 117.526985 99.772751 117.15937 99.834755 116.789619 99.829689 L 116.688622 98.547691 C 116.831619 98.555695 116.999619 98.52269 117.184624 98.43969 C 117.370621 98.356689 117.555618 98.173691 117.731621 97.899689 C 117.908623 97.615692 118.068619 97.21669 118.211617 96.700691 C 118.354622 96.176689 118.447617 95.49469 118.49762 94.636688 L 118.632622 92.331696 L 123.841621 92.331696 L 123.841621 99.737694 L 122.51162 99.737694 L 122.51162 93.637695 Z"/>
    <path id="path96" fill="#ffffff" fill-rule="evenodd" stroke="none" d="M 127.42662 92.34169 C 126.99662 92.457695 126.609619 92.623695 126.281616 92.831696 L 126.63562 93.880692 C 126.938622 93.73069 127.241623 93.60569 127.543617 93.497688 C 127.846619 93.389694 128.234619 93.339691 128.696625 93.339691 C 129.067627 93.339691 129.361618 93.39769 129.588623 93.513695 C 129.81662 93.622688 129.984619 93.788689 130.102615 93.988693 C 130.21962 94.18869 130.295624 94.43869 130.337616 94.728691 C 130.379623 95.020691 130.396622 95.336693 130.396622 95.677689 C 130.124466 95.488335 129.81424 95.360695 129.487625 95.303696 C 129.171722 95.240845 128.850693 95.207367 128.528625 95.20369 C 128.133621 95.20369 127.762619 95.261688 127.409622 95.361694 C 127.055618 95.461693 126.752617 95.611694 126.508621 95.811691 C 126.259552 96.011345 126.058304 96.264183 125.919617 96.551689 C 125.771736 96.866554 125.697197 97.210861 125.701622 97.558693 C 125.701622 98.281693 125.911621 98.848694 126.332619 99.247688 C 126.752617 99.64669 127.308617 99.846695 127.998619 99.846695 C 128.621613 99.846695 129.117615 99.738693 129.496613 99.52169 C 129.874619 99.305695 130.177628 99.055695 130.396622 98.77269 L 130.396622 99.729691 L 131.642624 99.729691 L 131.642624 95.186691 C 131.642624 94.221695 131.431625 93.472694 131.002625 92.948692 C 130.581619 92.423691 129.832626 92.158691 128.772614 92.158691 C 128.317841 92.159073 127.865166 92.220284 127.42662 92.340691 Z M 129.656616 98.339691 C 129.354614 98.556694 128.958618 98.656693 128.470627 98.656693 C 128.032623 98.656693 127.70462 98.548691 127.46962 98.339691 C 127.23362 98.123695 127.115623 97.840691 127.115623 97.491692 C 127.115623 97.283691 127.157623 97.108688 127.250618 96.950691 C 127.342621 96.792694 127.46962 96.667694 127.612617 96.567696 C 127.755623 96.46769 127.931618 96.392693 128.125626 96.34269 C 128.317993 96.293015 128.51593 96.268143 128.714615 96.268692 C 129.370621 96.268692 129.934616 96.426689 130.397614 96.75869 L 130.397614 97.698692 C 130.179077 97.943199 129.930038 98.15863 129.656616 98.339691 Z"/>
    <path id="path98" fill="#ffffff" stroke="none" d="M 132.945618 92.324692 L 139.770615 92.324692 L 139.770615 93.638695 L 137.026627 93.638695 L 137.026627 99.729691 L 135.697617 99.729691 L 135.697617 93.639694 L 132.95462 93.639694 L 132.95462 92.324692 Z"/>
    <path id="path100" fill="#ffffff" fill-rule="evenodd" stroke="none" d="M 145.981613 99.654694 C 146.486618 99.496689 146.915619 99.254692 147.285614 98.922691 L 146.881622 97.890694 C 146.637619 98.107689 146.309616 98.290695 145.91362 98.440689 C 145.518616 98.590691 145.072617 98.664696 144.584625 98.664696 C 143.852615 98.664696 143.246613 98.473694 142.766617 98.082695 C 142.286621 97.691689 142.026627 97.142693 141.967621 96.442696 L 147.723618 96.442696 C 147.781616 96.185692 147.807617 95.893692 147.807617 95.552689 C 147.807617 95.045692 147.714615 94.587692 147.529617 94.171692 C 147.3573 93.767822 147.105286 93.402878 146.78862 93.098694 C 146.46875 92.796196 146.091248 92.561195 145.678619 92.407692 C 145.246613 92.240158 144.786957 92.155357 144.323624 92.157692 C 143.700623 92.157692 143.153625 92.265694 142.674622 92.465691 C 142.221497 92.655746 141.811829 92.936119 141.470627 93.289696 C 141.139069 93.641182 140.884033 94.057625 140.721619 94.512695 C 140.544312 94.997566 140.455902 95.510437 140.460617 96.026695 C 140.460617 96.609695 140.561615 97.141693 140.746613 97.616692 C 140.932617 98.090691 141.209625 98.498695 141.554626 98.839691 C 141.899612 99.180695 142.320618 99.43869 142.817627 99.621689 C 143.349319 99.81073 143.910355 99.903847 144.474625 99.89669 C 144.971619 99.89669 145.476624 99.812691 145.981613 99.654694 Z M 142.60762 93.946693 C 143.019623 93.572693 143.56662 93.389694 144.256622 93.389694 C 144.91362 93.389694 145.42662 93.572693 145.805618 93.913689 C 146.183624 94.263695 146.38562 94.745689 146.419617 95.361694 L 141.875626 95.361694 C 141.939774 94.816811 142.199951 94.313873 142.60762 93.946693 Z M 148.455627 92.324692 L 150.138626 92.324692 L 152.70462 95.894691 L 149.961624 99.729691 L 148.32962 99.729691 L 151.206619 95.893692 L 148.455627 92.323692 Z M 153.032623 92.324692 L 154.362625 92.324692 L 154.362625 99.729691 L 153.032623 99.729691 Z M 159.116623 99.729691 L 156.188614 95.893692 L 158.923615 92.323692 L 157.273621 92.323692 L 154.690613 95.893692 L 157.467621 99.729691 Z M 165.192627 99.654694 C 165.697617 99.496689 166.126617 99.254692 166.496613 98.922691 L 166.092621 97.890694 C 165.848618 98.107689 165.520615 98.290695 165.125626 98.440689 C 164.729614 98.590691 164.283615 98.664696 163.795624 98.664696 C 163.063614 98.664696 162.457626 98.473694 161.977615 98.082695 C 161.498627 97.691689 161.237625 97.142693 161.178619 96.442696 L 166.934616 96.442696 C 166.993622 96.185692 167.018616 95.893692 167.018616 95.552689 C 167.018616 95.045692 166.92662 94.587692 166.740616 94.171692 C 166.568314 93.768066 166.316666 93.403183 166.000626 93.098694 C 165.680389 92.796173 165.302551 92.561172 164.889618 92.407692 C 164.457642 92.240067 163.997971 92.155258 163.534622 92.157692 C 162.912613 92.157692 162.365616 92.265694 161.88562 92.465691 C 161.432938 92.656013 161.023651 92.936356 160.682617 93.289696 C 160.350403 93.640663 160.095261 94.057251 159.933624 94.512695 C 159.755844 94.997437 159.667419 95.510399 159.672623 96.026695 C 159.672623 96.609695 159.773621 97.141693 159.958618 97.616692 C 160.143616 98.090691 160.421616 98.498695 160.766617 98.839691 C 161.111618 99.180695 161.531616 99.43869 162.028625 99.621689 C 162.560669 99.810722 163.12204 99.903839 163.686615 99.89669 C 164.197983 99.892899 164.705811 99.811295 165.192627 99.654694 Z M 161.818619 93.946693 C 162.231613 93.572693 162.778625 93.389694 163.468613 93.389694 C 164.116623 93.389694 164.637619 93.572693 165.016617 93.913689 C 165.395615 94.263695 165.597626 94.745689 165.630615 95.361694 L 161.086624 95.361694 C 161.150772 94.816811 161.41095 94.313873 161.818619 93.946693 Z M 172.41362 89.836693 C 171.630615 89.836693 171.201614 89.403694 171.134613 88.538689 L 169.880615 88.538689 C 169.880615 88.870689 169.939621 89.170692 170.048615 89.45369 C 170.158615 89.736694 170.318619 89.977692 170.528625 90.177689 C 170.738617 90.377693 171.008621 90.53569 171.319626 90.659691 C 171.630615 90.784691 171.992615 90.84269 172.404617 90.84269 C 172.783615 90.84269 173.120621 90.784691 173.423615 90.659691 C 173.726624 90.543694 173.978622 90.377693 174.197617 90.177689 C 174.407623 89.977692 174.576614 89.736694 174.693619 89.45369 C 174.811615 89.170692 174.870621 88.870689 174.870621 88.538689 L 173.625626 88.538689 C 173.56662 89.403694 173.153625 89.836693 172.41362 89.836693 Z M 168.819626 92.323692 L 168.819626 99.729691 L 170.149612 99.729691 L 174.474625 94.212692 L 174.474625 99.729691 L 175.804626 99.729691 L 175.804626 92.323692 L 174.474625 92.323692 L 170.149612 97.840691 L 170.149612 92.323692 Z"/>
</svg>
