<svg version="1.1" xmlns="http://www.w3.org/2000/svg">
    <symbol id="truck" viewBox="0 0 640 512">
        <g>
            <path fill="currentColor" d="M624 352h-16V243.9c0-12.7-5.1-24.9-14.1-33.9L494 110.1c-9-9-21.2-14.1-33.9-14.1H416V48c0-26.5-21.5-48-48-48H48C21.5 0 0 21.5 0 48v320c0 26.5 21.5 48 48 48h16c0 53 43 96 96 96s96-43 96-96h128c0 53 43 96 96 96s96-43 96-96h48c8.8 0 16-7.2 16-16v-32c0-8.8-7.2-16-16-16zM160 464c-26.5 0-48-21.5-48-48s21.5-48 48-48 48 21.5 48 48-21.5 48-48 48zm320 0c-26.5 0-48-21.5-48-48s21.5-48 48-48 48 21.5 48 48-21.5 48-48 48zm80-208H416V144h44.1l99.9 99.9V256z" />
        </g>
    </symbol>
    <symbol id="credit-card" viewBox="0 0 576 512">
        <g>
            <path fill="currentColor" d="M0 432c0 26.5 21.5 48 48 48h480c26.5 0 48-21.5 48-48V256H0v176zm192-68c0-6.6 5.4-12 12-12h136c6.6 0 12 5.4 12 12v40c0 6.6-5.4 12-12 12H204c-6.6 0-12-5.4-12-12v-40zm-128 0c0-6.6 5.4-12 12-12h72c6.6 0 12 5.4 12 12v40c0 6.6-5.4 12-12 12H76c-6.6 0-12-5.4-12-12v-40zM576 80v48H0V80c0-26.5 21.5-48 48-48h480c26.5 0 48 21.5 48 48z" />
        </g>
    </symbol>
    <symbol id="palette" viewBox="0 0 512 512">
        <g>
            <path fill="currentColor" d="M204.3 5C104.9 24.4 24.8 104.3 5.2 203.4c-37 187 131.7 326.4 258.8 306.7 41.2-6.4 61.4-54.6 42.5-91.7-23.1-45.4 9.9-98.4 60.9-98.4h79.7c35.8 0 64.8-29.6 64.9-65.3C511.5 97.1 368.1-26.9 204.3 5zM96 320c-17.7 0-32-14.3-32-32s14.3-32 32-32 32 14.3 32 32-14.3 32-32 32zm32-128c-17.7 0-32-14.3-32-32s14.3-32 32-32 32 14.3 32 32-14.3 32-32 32zm128-64c-17.7 0-32-14.3-32-32s14.3-32 32-32 32 14.3 32 32-14.3 32-32 32zm128 64c-17.7 0-32-14.3-32-32s14.3-32 32-32 32 14.3 32 32-14.3 32-32 32z" />
        </g>
    </symbol>
    <symbol id="object-ungroup" viewBox="0 0 576 512">
        <g>
            <path fill="currentColor" d="M64 320v26a6 6 0 0 1-6 6H6a6 6 0 0 1-6-6v-52a6 6 0 0 1 6-6h26V96H6a6 6 0 0 1-6-6V38a6 6 0 0 1 6-6h52a6 6 0 0 1 6 6v26h288V38a6 6 0 0 1 6-6h52a6 6 0 0 1 6 6v52a6 6 0 0 1-6 6h-26v192h26a6 6 0 0 1 6 6v52a6 6 0 0 1-6 6h-52a6 6 0 0 1-6-6v-26H64zm480-64v-32h26a6 6 0 0 0 6-6v-52a6 6 0 0 0-6-6h-52a6 6 0 0 0-6 6v26H408v72h8c13.255 0 24 10.745 24 24v64c0 13.255-10.745 24-24 24h-64c-13.255 0-24-10.745-24-24v-8H192v72h-26a6 6 0 0 0-6 6v52a6 6 0 0 0 6 6h52a6 6 0 0 0 6-6v-26h288v26a6 6 0 0 0 6 6h52a6 6 0 0 0 6-6v-52a6 6 0 0 0-6-6h-26V256z" />
        </g>
    </symbol>

    <symbol id="check" viewBox="0 0 512 512">
        <g>
            <path fill="currentColor" d="M504 256c0 136.967-111.033 248-248 248S8 392.967 8 256 119.033 8 256 8s248 111.033 248 248zM227.314 387.314l184-184c6.248-6.248 6.248-16.379 0-22.627l-22.627-22.627c-6.248-6.249-16.379-6.249-22.628 0L216 308.118l-70.059-70.059c-6.248-6.248-16.379-6.248-22.628 0l-22.627 22.627c-6.248 6.248-6.248 16.379 0 22.627l104 104c6.249 6.249 16.379 6.249 22.628.001z" />
        </g>
    </symbol>
    <symbol id="warning" viewBox="0 0 576 512">
        <g>
            <path fill="currentColor" d="M569.517 440.013C587.975 472.007 564.806 512 527.94 512H48.054c-36.937 0-59.999-40.055-41.577-71.987L246.423 23.985c18.467-32.009 64.72-31.951 83.154 0l239.94 416.028zM288 354c-25.405 0-46 20.595-46 46s20.595 46 46 46 46-20.595 46-46-20.595-46-46-46zm-43.673-165.346l7.418 136c.347 6.364 5.609 11.346 11.982 11.346h48.546c6.373 0 11.635-4.982 11.982-11.346l7.418-136c.375-6.874-5.098-12.654-11.982-12.654h-63.383c-6.884 0-12.356 5.78-11.981 12.654z" />
        </g>
    </symbol>
    <symbol id="times" viewBox="0 0 512 512">
        <g>
            <path fill="currentColor" d="M256 8C119 8 8 119 8 256s111 248 248 248 248-111 248-248S393 8 256 8zm121.6 313.1c4.7 4.7 4.7 12.3 0 17L338 377.6c-4.7 4.7-12.3 4.7-17 0L256 312l-65.1 65.6c-4.7 4.7-12.3 4.7-17 0L134.4 338c-4.7-4.7-4.7-12.3 0-17l65.6-65-65.6-65.1c-4.7-4.7-4.7-12.3 0-17l39.6-39.6c4.7-4.7 12.3-4.7 17 0l65 65.7 65.1-65.6c4.7-4.7 12.3-4.7 17 0l39.6 39.6c4.7 4.7 4.7 12.3 0 17L312 256l65.6 65.1z" />
        </g>
    </symbol>
</svg>