<svg width="20" height="20" viewBox="0 0 20 20" fill="none" xmlns="http://www.w3.org/2000/svg">
<rect width="20" height="20" rx="10" fill="#2B2C32"/>
<path fill-rule="evenodd" clip-rule="evenodd" d="M5.253 8.71959C5.03012 8.051 4.9532 7.34237 5.0274 6.6415C5.10051 5.94056 5.32319 5.26345 5.68039 4.65594C6.95974 2.47978 9.71043 1.54232 12.2957 2.21353L13.0468 3.34576L11.8446 4.293C9.37411 3.633 6.82383 4.57325 5.76026 6.37667C5.34811 7.08453 5.17057 7.90468 5.253 8.71959Z" fill="#F35C22"/>
<path d="M5.99316 13.963L7.77978 12.9177C8.15812 13.8986 8.90078 14.5376 10.2152 14.5376C11.4763 14.5376 11.9107 14.0079 11.9107 13.4166C11.9107 12.629 11.1989 12.3264 9.62522 11.8752C8.00676 11.4057 6.43176 10.7247 6.43176 8.71249C6.43176 6.70028 8.09644 5.56526 9.91248 5.56526C11.6528 5.56526 12.9854 6.45786 13.6959 7.94742L11.9415 8.96191C11.5632 8.159 10.9873 7.5999 9.91248 7.5999C9.0353 7.5999 8.52105 8.05391 8.52105 8.65926C8.52105 9.30943 8.92878 9.65837 10.5333 10.1418C12.2148 10.6715 14 11.232 14 13.3955C14 15.3783 12.4095 16.589 10.1549 16.589C7.99135 16.5806 6.56906 15.5395 5.99316 13.963Z" fill="white"/>
</svg>
