<svg width="48" height="48" viewBox="0 0 48 48" fill="none" xmlns="http://www.w3.org/2000/svg">
<path d="M1 23.9255C1 14.3429 1 9.55156 3.44034 6.19273C4.22847 5.10796 5.18242 4.154 6.26719 3.36588C9.62603 0.925537 14.4174 0.925537 24 0.925537C33.5826 0.925537 38.374 0.925537 41.7328 3.36588C42.8176 4.154 43.7715 5.10796 44.5597 6.19273C47 9.55156 47 14.3429 47 23.9255C47 33.5082 47 38.2995 44.5597 41.6583C43.7715 42.7431 42.8176 43.6971 41.7328 44.4852C38.374 46.9255 33.5826 46.9255 24 46.9255C14.4174 46.9255 9.62603 46.9255 6.26719 44.4852C5.18242 43.6971 4.22847 42.7431 3.44034 41.6583C1 38.2995 1 33.5082 1 23.9255Z" fill="url(#paint0_radial_53366_74064)"/>
<path fill-rule="evenodd" clip-rule="evenodd" d="M22.2574 46.9249C13.8236 46.916 9.41595 46.7729 6.26719 44.4852C5.18242 43.6971 4.22846 42.7431 3.44034 41.6583C1.45198 38.9216 1.08371 35.2339 1.0155 28.7783C8.10579 20.5844 16.0456 11.3691 16.8943 10.215C17.084 9.93863 17.2658 9.80834 17.4278 9.7886C17.6886 9.75701 17.8862 10.0176 17.9574 10.4045C18.0159 10.7895 18.1316 11.4886 18.2321 12.0956C18.2944 12.4723 18.3509 12.8135 18.3842 13.0222C18.5897 12.9708 19.0995 12.9037 19.6489 12.8366C20.4907 12.7339 21.368 12.6471 21.4154 12.6431C21.4945 12.5286 23.016 10.3374 23.4152 9.77675C23.5851 9.52012 23.7748 9.36219 23.9447 9.34245C24.1582 9.31876 24.3439 9.50433 24.4229 9.97811C24.4706 10.2884 24.5789 10.9389 24.6878 11.5925C24.7867 12.1865 24.8861 12.7829 24.9406 13.1288C26.2527 13.5394 27.5174 14.1277 28.707 14.8778C28.8769 14.9844 29.0034 15.1581 29.0587 15.3516C29.114 15.553 29.0943 15.7583 29.0073 15.932L26.6163 20.6382C26.5017 20.8672 26.2843 21.0291 26.0472 21.0567C25.8812 21.0765 25.7074 21.0331 25.5453 20.9028C24.0989 19.8881 22.7473 19.4577 21.1546 19.6512C18.894 19.9236 17.7361 20.9738 18.0206 22.715L18.0443 22.8492C18.3565 24.772 20.0678 25.2971 24.3953 25.6445V25.6524C25.9351 25.7729 27.3889 25.7183 28.7079 25.6688C32.3181 25.5333 34.919 25.4357 35.5124 29.0676L35.71 29.9283C36.3289 33.7152 29.3195 40.7196 22.2574 46.9249Z" fill="#007989"/>
<path d="M26.4187 6.36954C26.5373 6.19187 26.6638 6.06947 26.7863 6.02209L24.7193 6.87096C24.5968 6.92228 24.4704 7.04468 24.3518 7.2184C24.008 7.70008 22.7078 9.57547 22.6366 9.67417L24.7035 8.82531C24.7707 8.72661 26.0749 6.85122 26.4187 6.36954Z" fill="url(#paint1_radial_53366_74064)"/>
<path d="M24.4862 14.8384C23.9724 14.9016 23.5219 15.0082 23.1464 15.1621L21.0795 16.011C21.4549 15.857 21.9055 15.7465 22.4192 15.6873C23.7827 15.5254 24.9446 15.8926 26.1816 16.7612C26.3199 16.8717 26.4701 16.9112 26.6124 16.8915C26.6638 16.8836 26.7151 16.8717 26.7626 16.852L28.8295 16.0031C28.782 16.0229 28.7307 16.0347 28.6793 16.0426C28.537 16.0584 28.3868 16.0229 28.2485 15.9123C27.0076 15.0437 25.8496 14.6765 24.4862 14.8384Z" fill="url(#paint2_radial_53366_74064)"/>
<path d="M22.0596 26.0432C25.5651 26.442 27.3554 26.6197 27.6794 28.6135L27.7032 28.7675C27.8691 29.7901 27.4463 30.7771 26.0314 31.3614L28.0984 30.5126C29.5171 29.9282 29.94 28.9412 29.7701 27.9186L29.7464 27.7646C29.4223 25.7747 27.632 25.5971 24.1266 25.1944C21.4787 24.8864 17.005 24.6416 15.9774 18.3561L15.9537 18.2061C15.6178 16.1451 16.0248 14.3566 16.8192 12.8089C17.5701 11.348 19.4869 8.56852 20.8266 6.74445C20.9531 6.55889 21.0756 6.45229 21.1902 6.40491L19.1233 7.25377C19.0087 7.30115 18.8861 7.40775 18.7597 7.59331C17.4199 9.41738 15.4992 12.1969 14.7523 13.6577C13.9579 15.2054 13.5469 16.994 13.8868 19.0549L13.9105 19.205C14.938 25.4905 19.4118 25.7353 22.0596 26.0432Z" fill="url(#paint3_radial_53366_74064)"/>
<path d="M30.6079 35.9573C29.5922 36.3758 28.4501 36.668 27.2012 36.818C24.1503 37.1852 20.6606 36.2376 18.1392 34.7018C18.0641 34.6544 17.9969 34.5912 17.9416 34.5201C17.8863 34.4451 17.8467 34.3662 17.823 34.2793C17.7993 34.1885 17.7874 34.0977 17.7993 34.0108C17.8072 33.924 17.8349 33.8371 17.8744 33.7621L19.9453 29.6481C20.0164 29.5454 20.1112 29.4625 20.2259 29.4191L18.1589 30.2679C18.0483 30.3153 17.9495 30.3943 17.8783 30.4969L15.8075 34.6109C15.7679 34.6899 15.7403 34.7728 15.7324 34.8597C15.7205 34.9465 15.7324 35.0373 15.7561 35.1282C15.7798 35.215 15.8193 35.2979 15.8746 35.369C15.93 35.444 15.9972 35.5032 16.0722 35.5506C18.5937 37.0865 22.0833 38.034 25.1343 37.6668C26.3831 37.5168 27.5253 37.2246 28.541 36.8061L30.6079 35.9573Z" fill="url(#paint4_radial_53366_74064)"/>
<path d="M33.1333 36.743L31.0663 37.5919C31.0663 37.5919 31.0307 37.6077 31.0149 37.6195C30.6434 37.817 30.264 37.9986 29.8767 38.1565L31.9437 37.3076C32.331 37.1497 32.7104 36.9681 33.0819 36.7707C33.0977 36.7588 33.1174 36.7509 33.1333 36.743Z" fill="url(#paint5_radial_53366_74064)"/>
<path d="M29.7938 39.9134L28.8374 39.9529C28.6003 39.5897 28.6002 39.4317 28.9678 39.262L26.9364 40.1937C26.5689 40.3635 26.565 40.5175 26.806 40.8847L27.8217 42.4955C27.9403 42.6693 28.0786 42.7759 28.2169 42.7561C28.2367 42.7561 29.0824 42.4087 30.1692 41.5796C31.256 40.7504 31.6275 40.3161 31.6038 40.3201C31.4655 40.3438 29.9123 40.0911 29.7938 39.9174V39.9134Z" fill="#007989"/>
<path d="M30.932 40.2292L29.9795 38.5828C29.7543 38.2077 29.7661 38.0538 30.1376 37.8998L28.0707 38.7486C27.6992 38.9026 27.6874 39.0605 27.9126 39.4317L28.8651 41.0781C28.9757 41.2557 29.1101 41.3702 29.2484 41.3505C29.2721 41.3505 29.2919 41.3426 29.3156 41.3347L31.3825 40.4858C31.3588 40.4937 31.3391 40.5016 31.3153 40.5016C31.177 40.5174 31.0427 40.4069 30.932 40.2292Z" fill="url(#paint6_radial_53366_74064)"/>
<path d="M23.4034 41.0188C23.2255 40.2923 22.9844 39.404 22.8145 38.7131C22.7434 38.409 22.7552 38.2353 22.8896 38.1801L20.8227 39.0289C20.6883 39.0842 20.6764 39.2579 20.7476 39.5619C20.9175 40.2529 21.1586 41.1412 21.3364 41.8677C21.3957 42.1282 21.5024 42.2625 21.6526 42.2467C21.6763 42.2467 21.704 42.2348 21.7316 42.227L23.7986 41.3781C23.7709 41.3899 23.7472 41.3978 23.7195 41.3978C23.5654 41.4176 23.4587 41.2794 23.4034 41.0188Z" fill="url(#paint7_radial_53366_74064)"/>
<path d="M27.2645 19.9749C32.1966 20.3618 34.971 22.5294 35.6666 26.7816L35.6903 26.9316C36.5597 32.2577 33.0898 36.1112 27.1973 36.814C24.1463 37.1811 20.6567 36.2336 18.1353 34.6977C18.0602 34.6504 17.993 34.5872 17.9376 34.5161C17.8823 34.4411 17.8428 34.3621 17.8191 34.2753C17.7954 34.1845 17.7835 34.0937 17.7954 34.0068C17.8033 33.9199 17.831 33.8331 17.8705 33.7581L19.9413 29.644C20.0322 29.5098 20.1666 29.415 20.3247 29.3795C20.5183 29.3519 20.6646 29.3874 20.791 29.4624C22.277 30.4969 24.4783 31.172 26.237 30.9588C29.1457 30.6114 29.9954 29.2966 29.7661 27.9187L29.7424 27.7647C29.4184 25.7748 27.6281 25.5971 24.1226 25.1944C21.4747 24.8865 17.001 24.6417 15.9735 18.3562L15.9498 18.2061C15.6138 16.1452 16.0209 14.3566 16.8153 12.8089C17.5661 11.3481 19.4829 8.56858 20.8226 6.74451C20.9847 6.50762 21.1428 6.39707 21.2771 6.38128C21.4985 6.35364 21.6723 6.57869 21.7316 6.91034C21.8146 7.44729 22.0201 8.68703 22.0991 9.15291C22.277 9.10948 22.7157 9.05026 23.182 8.99498C23.9052 8.90812 24.6561 8.83311 24.6957 8.82916C24.7628 8.73046 26.067 6.85506 26.4109 6.37338C26.5571 6.15228 26.7191 6.01805 26.8653 6.00225C27.0471 5.97856 27.2052 6.14044 27.2764 6.5471C27.3554 7.05247 27.6202 8.62385 27.719 9.24767C28.8453 9.60301 29.9282 10.1044 30.9478 10.748C31.094 10.8388 31.2007 10.9849 31.2482 11.1546C31.2956 11.3244 31.2798 11.506 31.2047 11.6521L29.1575 15.6872C29.0587 15.8846 28.873 16.0228 28.6714 16.0465C28.5291 16.0623 28.379 16.0267 28.2407 15.9162C26.9997 15.0476 25.8418 14.6804 24.4783 14.8423C22.5378 15.0752 21.5498 15.9754 21.7949 17.4678L21.8146 17.5823C22.0834 19.2287 23.5496 19.6788 27.2605 19.9789L27.2645 19.9749Z" fill="#F5F5F5"/>
<path d="M33.2282 36.6996C33.4455 36.6719 33.6036 36.8614 33.4455 37.1931C32.9357 38.0419 32.1176 39.4001 31.6394 40.1937C31.5248 40.399 31.4102 40.4938 31.2995 40.5056C31.1612 40.5214 31.0268 40.4109 30.9162 40.2292L29.9558 38.5749C29.7227 38.1841 29.7424 38.0301 30.1614 37.8682C31.177 37.6195 32.1532 37.2444 33.074 36.7509C33.1254 36.7193 33.1807 36.7035 33.2282 36.6996Z" fill="#F5F5F5"/>
<path d="M25.7193 38.5077C26.2212 38.5196 26.4109 38.7801 26.0631 39.1789C25.4189 39.7869 24.4941 40.6634 23.9685 41.2557C23.8697 41.3465 23.7827 41.3938 23.7037 41.4017C23.5496 41.4215 23.4429 41.2833 23.3836 41.0227C23.2018 40.2923 22.9607 39.3961 22.7908 38.7051C22.7078 38.3577 22.7355 38.1761 22.9291 38.1524C22.9884 38.1445 23.0635 38.1524 23.1544 38.1761C24.0001 38.3695 24.8577 38.4761 25.7153 38.5077H25.7193Z" fill="#F5F5F5"/>
<defs>
<radialGradient id="paint0_radial_53366_74064" cx="0" cy="0" r="1" gradientUnits="userSpaceOnUse" gradientTransform="translate(40.649 1.04425) scale(42.9983)">
<stop offset="0.34" stop-color="#00FF8A"/>
<stop offset="1" stop-color="#009B89"/>
</radialGradient>
<radialGradient id="paint1_radial_53366_74064" cx="0" cy="0" r="1" gradientUnits="userSpaceOnUse" gradientTransform="translate(22.6999 10.5665) scale(32.2409 32.2094)">
<stop stop-color="#009B89"/>
<stop offset="1" stop-color="#00FF8A"/>
</radialGradient>
<radialGradient id="paint2_radial_53366_74064" cx="0" cy="0" r="1" gradientUnits="userSpaceOnUse" gradientTransform="translate(22.6998 10.5664) scale(32.2408 32.2094)">
<stop stop-color="#009B89"/>
<stop offset="1" stop-color="#00FF8A"/>
</radialGradient>
<radialGradient id="paint3_radial_53366_74064" cx="0" cy="0" r="1" gradientUnits="userSpaceOnUse" gradientTransform="translate(32.9436 7.90917) scale(22.9338 22.9114)">
<stop stop-color="#009B89"/>
<stop offset="1" stop-color="#00FF8A"/>
</radialGradient>
<radialGradient id="paint4_radial_53366_74064" cx="0" cy="0" r="1" gradientUnits="userSpaceOnUse" gradientTransform="translate(22.6998 10.5664) scale(32.2409 32.2094)">
<stop stop-color="#009B89"/>
<stop offset="1" stop-color="#00FF8A"/>
</radialGradient>
<radialGradient id="paint5_radial_53366_74064" cx="0" cy="0" r="1" gradientUnits="userSpaceOnUse" gradientTransform="translate(22.6998 10.5665) scale(32.2411 32.2094)">
<stop stop-color="#009B89"/>
<stop offset="1" stop-color="#00FF8A"/>
</radialGradient>
<radialGradient id="paint6_radial_53366_74064" cx="0" cy="0" r="1" gradientUnits="userSpaceOnUse" gradientTransform="translate(22.6999 10.5664) scale(32.2407 32.2094)">
<stop stop-color="#009B89"/>
<stop offset="1" stop-color="#00FF8A"/>
</radialGradient>
<radialGradient id="paint7_radial_53366_74064" cx="0" cy="0" r="1" gradientUnits="userSpaceOnUse" gradientTransform="translate(22.6999 10.5664) scale(32.241 32.2094)">
<stop stop-color="#009B89"/>
<stop offset="1" stop-color="#00FF8A"/>
</radialGradient>
</defs>
</svg>
