<svg width="20" height="20" viewBox="0 0 20 20" fill="none" xmlns="http://www.w3.org/2000/svg">
<rect width="20" height="20" rx="10" fill="#25C1F0"/>
<path d="M6.80426 13.7991C7.39703 13.7174 7.94225 14.1424 8.02155 14.748C8.10085 15.3536 7.68414 15.91 7.09119 15.9903C6.49919 16.0705 5.9555 15.6457 5.87633 15.0411C5.79716 14.4365 6.21243 13.8806 6.80426 13.7991Z" fill="white"/>
<path d="M11.6898 13.8004C12.2827 13.7207 12.8264 14.1479 12.903 14.7537C12.9797 15.3596 12.5602 15.9139 11.9669 15.9908C11.3755 16.0674 10.8349 15.6406 10.7586 15.0367C10.6822 14.4328 11.0987 13.8797 11.6898 13.8004Z" fill="white"/>
<path d="M3 5C3.15053 5.10546 3.32984 5.31417 3.47065 5.44569C5.23675 7.09531 7.77842 7.19561 10.075 7.2822C11.2821 7.31927 12.4898 7.33843 13.6975 7.33966C14.6953 7.34377 16.757 7.30841 17.613 7.76482C17.8285 7.87968 17.9283 8.01975 18 8.25229V8.33215C17.7951 9.12232 16.7948 9.95431 16.1884 10.4863C15.7335 10.8923 15.2743 11.2933 14.8109 11.6893C14.5656 11.9031 14.3196 12.1254 14.0722 12.3361C13.8675 12.5105 13.5942 12.7825 13.387 12.9332C13.6881 12.3205 14.2263 11.7938 14.6374 11.3066C15.0987 10.7598 16.9745 9.26042 15.543 8.76607C14.1342 8.27955 12.4345 8.49114 10.9856 8.43909C8.64603 8.35503 5.82034 8.29622 4.0228 6.55406C3.65779 6.19622 3.23755 5.45641 3 5Z" fill="white"/>
</svg>
