<svg width="20" height="20" viewBox="0 0 20 20" fill="none" xmlns="http://www.w3.org/2000/svg">
<g clip-path="url(#clip0_12_450)">
<rect width="20" height="20" rx="10" fill="#005BFF"/>
<path d="M17.9 -0.0404053H13.2C13.3 0.00959473 13.35 0.109595 13.45 0.159595L15.35 1.35959H6.5C5.7 1.35959 5 1.85959 4.8 2.65959C4.6 3.45959 4.9 4.20959 5.6 4.65959L11.4 8.20959H2.35C1.55 8.20959 0.85 8.75959 0.65 9.50959C0.45 10.2596 0.75 11.0596 1.45 11.4596L7.2 14.9596H0V17.8096C0 19.0096 0.95 19.9596 2.1 19.9596H6.9C6.85 19.9096 6.75 19.8596 6.7 19.8096L4.65 18.5096H13.5C14.3 18.5096 15 17.9596 15.2 17.2096C15.4 16.4596 15.1 15.6596 14.4 15.2096L8.55 11.6596L17.6 11.6096C18.4 11.6096 19.1 11.0596 19.3 10.3096C19.5 9.5596 19.2 8.75959 18.5 8.35959L12.75 4.85959H20V2.05959C20 0.909595 19.05 -0.0404053 17.9 -0.0404053Z" fill="#F81055"/>
</g>
<defs>
<clipPath id="clip0_12_450">
<rect width="20" height="20" rx="10" fill="white"/>
</clipPath>
</defs>
</svg>
