<svg width="20" height="20" viewBox="0 0 20 20" fill="none" xmlns="http://www.w3.org/2000/svg">
<g clip-path="url(#clip0_14_511)">
<path fill-rule="evenodd" clip-rule="evenodd" d="M17.4285 3.3073C17.7606 3.67595 18.0654 4.06901 18.3402 4.48403L18.485 4.6728L18.6117 4.9172C19.6376 6.65158 20.1504 8.7113 19.9613 10.8714C19.48 16.373 14.63 20.4427 9.12846 19.9613C3.62701 19.48 -0.442677 14.63 0.0386548 9.12837C0.519962 3.62699 5.37002 -0.442664 10.8715 0.0386528C12.5999 0.189866 14.1869 0.772269 15.5366 1.67142L15.7503 1.81083L15.9853 1.98888C16.303 2.22661 16.6058 2.48262 16.8914 2.7548L17.1944 3.0337L17.4285 3.3073ZM15.136 2.47226C13.9672 1.75154 12.2538 1.12214 10.7907 0.994139C5.78277 0.556 1.36882 4.24907 0.931947 9.24261C0.495045 14.2364 4.20066 18.6397 9.20859 19.0778C14.2166 19.516 18.6304 15.823 19.0674 10.8292C19.232 8.94632 18.6475 6.82853 17.7862 5.29446L17.2414 5.83552L10.5889 12.3925L17.7998 7.22789C18.1986 8.32522 18.3779 9.52061 18.2694 10.7594C17.871 15.3138 13.8455 18.6819 9.27819 18.2822C4.71085 17.8827 1.33142 13.8667 1.72987 9.31242C2.1283 4.75826 6.15374 1.39022 10.7211 1.78982C11.6399 1.87019 12.253 1.94667 13.0546 2.29478L8.98939 6.58294L13.9532 3.28128L15.136 2.47226ZM16.609 3.79464L16.1002 4.35496L7.90112 12.1815L16.817 6.00443L17.7862 5.29446C17.5344 4.90906 17.1029 4.28678 16.609 3.79464ZM15.136 2.47226L13.3965 4.29226L9.21178 8.65134L15.9258 4.19781L16.609 3.79464C16.1758 3.27173 15.4198 2.68077 15.136 2.47226Z" fill="url(#paint0_linear_14_511)"/>
</g>
<defs>
<linearGradient id="paint0_linear_14_511" x1="0.0385966" y1="9.12853" x2="19.9613" y2="10.8715" gradientUnits="userSpaceOnUse">
<stop stop-color="#FFC107"/>
<stop offset="1" stop-color="#FFA751"/>
</linearGradient>
<clipPath id="clip0_14_511">
<rect width="20" height="20" fill="white"/>
</clipPath>
</defs>
</svg>
