<svg width="20" height="20" viewBox="0 0 20 20" fill="none" xmlns="http://www.w3.org/2000/svg">
<rect width="20" height="20" rx="10" fill="url(#paint0_linear_13_504)"/>
<path fill-rule="evenodd" clip-rule="evenodd" d="M12.5548 16.2269C12.5345 16.2258 12.51 16.2293 12.4864 16.2397C12.068 16.3956 11.6331 16.4979 11.1888 16.5445C11.0021 16.5888 10.9849 16.653 11.0608 16.8322L11.3713 17.5892C11.4076 17.6726 11.4581 17.7273 11.5176 17.7286C11.5651 17.7299 11.6192 17.6964 11.6795 17.6161C11.928 17.3074 12.353 16.779 12.6181 16.4487C12.7042 16.3173 12.6483 16.2278 12.5548 16.2269ZM8.11122 16.2458C8.02787 16.2446 8.00551 16.32 8.02048 16.4721C8.0523 16.7748 8.10229 17.1687 8.13685 17.4889C8.14682 17.6028 8.18401 17.6676 8.25038 17.6681C8.2843 17.6694 8.32394 17.6543 8.37103 17.6216C8.62789 17.401 9.07018 17.0829 9.37811 16.8625C9.54836 16.7136 9.48321 16.5922 9.2715 16.5581L9.26987 16.5579C8.90873 16.4948 8.55193 16.3998 8.20521 16.2688C8.16815 16.2535 8.13676 16.2459 8.11122 16.2458ZM8.9236 2.26572C8.86582 2.26465 8.79249 2.30229 8.71018 2.39328C8.03726 3.08891 7.06446 4.15618 6.66184 4.73195C6.2358 5.34202 5.95976 6.07674 5.98231 6.9699L5.98374 7.0348C6.05382 9.75893 7.93301 10.122 9.0359 10.406C10.4963 10.7799 11.2438 10.959 11.2655 11.8214L11.2665 11.8879C11.2836 12.4853 10.8476 12.9936 9.59641 12.9723C8.83969 12.9608 7.94711 12.547 7.37819 12.0224C7.32901 11.9833 7.26908 11.9596 7.18552 11.9601C7.11656 11.9661 7.05416 11.9984 7.00791 12.0501L5.89259 13.6742C5.87156 13.7037 5.85479 13.7388 5.84641 13.7751C5.83634 13.8113 5.83615 13.8506 5.84091 13.8905C5.84591 13.9286 5.85809 13.9643 5.87713 13.9993C5.89641 14.0327 5.92114 14.0634 5.95017 14.0878C6.92823 14.885 8.35027 15.489 9.66294 15.5101C12.1978 15.5537 13.8901 14.1211 13.8312 11.8128L13.83 11.7479C13.7824 9.90499 12.7339 8.82519 10.6688 8.37534L10.667 8.37677C9.11365 8.03451 8.51902 7.75872 8.50083 7.04518L8.4992 6.99554C8.48214 6.34868 8.95262 6.02441 9.78745 6.0381C10.3739 6.0485 10.8428 6.2712 11.3176 6.71132C11.3697 6.76617 11.4312 6.78993 11.4924 6.79148C11.579 6.79308 11.6655 6.7453 11.7188 6.66737L12.8195 5.07537C12.8598 5.01779 12.8771 4.94176 12.8669 4.86704C12.8567 4.79233 12.8199 4.72418 12.7633 4.67722C12.3691 4.34532 11.9399 4.06996 11.4838 3.85406C11.4782 3.58384 11.4572 2.90241 11.4531 2.68361C11.4466 2.50714 11.3892 2.42943 11.3109 2.42889C11.2481 2.42711 11.1716 2.47446 11.0969 2.55971C10.9234 2.74398 10.2625 3.46353 10.2283 3.50148C10.2106 3.50084 9.88881 3.48906 9.5781 3.48398C9.37751 3.48038 9.18836 3.48015 9.11057 3.48825C9.10415 3.28619 9.0891 2.74887 9.08514 2.51637C9.0793 2.37235 9.01885 2.26687 8.9236 2.26572Z" fill="white"/>
<defs>
<linearGradient id="paint0_linear_13_504" x1="10" y1="0" x2="10" y2="20" gradientUnits="userSpaceOnUse">
<stop stop-color="#5FB029"/>
<stop offset="1" stop-color="#88C229"/>
</linearGradient>
</defs>
</svg>
