<svg width="20" height="20" viewBox="0 0 20 20" fill="none" xmlns="http://www.w3.org/2000/svg">
<rect width="20" height="20" rx="10" fill="#01B47B"/>
<path d="M13.8988 3.5C14.216 3.50536 14.522 3.52934 14.8167 3.57242C15.2105 3.63005 15.5529 3.72345 15.8381 3.85551C16.1243 3.98838 16.3646 4.16513 16.5529 4.38876C16.7353 4.60598 16.8624 4.84157 16.9253 5.09413C16.9896 5.35458 16.9744 5.61933 16.8839 5.88132C16.7895 6.15354 16.6096 6.38792 16.361 6.58575L16.3582 6.58857C16.0871 6.79762 15.7353 6.95419 15.3152 7.07011L15.3161 7.07199C15.2078 7.10324 15.0606 7.12747 14.9286 7.06352C14.8376 7.01962 14.7208 6.9234 14.7208 6.75692C14.7209 6.57929 14.8634 6.47989 14.9324 6.43904L15.0104 6.39954C15.0926 6.36425 15.1858 6.34182 15.2822 6.32618L15.2907 6.3243C15.5403 6.29341 15.7034 6.20345 15.8089 6.07318C15.9245 5.93036 15.9739 5.77433 15.9632 5.59542C15.9523 5.41599 15.8766 5.22199 15.7121 5.01043C15.5597 4.81479 15.3238 4.64767 14.9851 4.52043C14.6542 4.39628 14.2197 4.33299 13.6731 4.34174C13.1424 4.35054 12.5035 4.48115 11.7526 4.74333L11.7516 4.74427C11.344 4.88399 10.9956 5.07169 10.7039 5.30574C10.4139 5.53883 10.232 5.78333 10.1406 6.03651C10.064 6.24789 10.0609 6.46638 10.1396 6.69955L10.1791 6.80019L10.2271 6.89706C10.357 7.1232 10.6098 7.36054 11.0199 7.60054L11.3604 7.78582C11.4817 7.84698 11.6112 7.90761 11.7488 7.96828C12.0311 8.09282 12.3238 8.22224 12.6254 8.35576L13.5358 8.77334L13.9844 8.99811C14.1297 9.0746 14.2713 9.15307 14.4085 9.23324L14.5929 9.3461C15.0107 9.61333 15.3375 9.90647 15.5616 10.2302C15.8113 10.591 15.9598 10.9713 15.998 11.3682L16.0074 11.5158C16.0163 11.8104 15.9681 12.1031 15.8644 12.3923L15.808 12.5362C15.6496 12.9101 15.4285 13.2683 15.1478 13.6112C14.8683 13.9526 14.5409 14.2757 14.1659 14.5799C13.7922 14.8831 13.3988 15.1529 12.9856 15.3897C12.4203 15.7143 11.7924 15.9687 11.1046 16.1534C10.418 16.3376 9.71592 16.4484 9.0007 16.4863C8.28462 16.5239 7.58197 16.4842 6.894 16.3659C6.20222 16.2467 5.57693 16.0415 5.02054 15.7471C4.45992 15.4501 3.99418 15.0585 3.62768 14.5724C3.25102 14.0728 3.04561 13.4701 3.00413 12.7751C2.98305 12.4074 3.04295 12.0209 3.17718 11.6193C3.30996 11.2227 3.49315 10.8361 3.72549 10.4615C3.95905 10.085 4.23619 9.74251 4.55688 9.43356C4.88141 9.12093 5.2345 8.87783 5.61682 8.70844L5.6281 8.70374C5.69103 8.67956 5.76164 8.66021 5.83783 8.64449C5.89479 8.6327 5.9632 8.62346 6.03157 8.62944L6.10023 8.64073L6.10211 8.64167C6.17037 8.6607 6.26584 8.715 6.29961 8.83353C6.32673 8.92924 6.29547 9.01169 6.27798 9.04984L6.27704 9.05172C6.2468 9.11637 6.19669 9.16861 6.15854 9.20408C6.11508 9.24447 6.0612 9.28747 5.9996 9.33199C5.81883 9.47166 5.64949 9.62173 5.49173 9.78248C5.33517 9.94201 5.194 10.1164 5.06851 10.3063L5.06757 10.3073C4.8224 10.6747 4.63598 11.0708 4.50892 11.4951C4.38067 11.9228 4.31278 12.3461 4.30389 12.7657C4.29487 13.2981 4.41268 13.7373 4.64529 14.0956C4.88771 14.4691 5.20773 14.7726 5.60741 15.0079C6.01177 15.2458 6.48111 15.4199 7.01815 15.5261C7.55945 15.633 8.11796 15.6774 8.6941 15.6596C9.27156 15.6415 9.84457 15.5677 10.4133 15.4377C10.9803 15.3077 11.4933 15.1269 11.9529 14.8969L12.1664 14.784C12.6551 14.5144 13.0712 14.2008 13.4173 13.8445C13.8154 13.4345 14.0865 13.0196 14.2402 12.6011C14.3923 12.186 14.4192 11.7849 14.3258 11.3917C14.2465 11.0592 14.0592 10.7509 13.7474 10.4681L13.6063 10.3487C13.4051 10.1889 13.1449 10.0341 12.8229 9.88782C12.4909 9.73717 12.1443 9.58941 11.7836 9.44297C11.4183 9.29505 11.0582 9.14327 10.703 8.99059C10.3385 8.83404 10.0141 8.66426 9.73241 8.4799C9.17299 8.1235 8.78951 7.7114 8.63673 7.23187C8.49072 6.77352 8.50692 6.31811 8.68658 5.87756C8.86287 5.44543 9.16878 5.05967 9.59039 4.717C10.0109 4.37528 10.4978 4.10865 11.0482 3.9157L11.051 3.91476C11.4194 3.79019 11.8252 3.69227 12.267 3.62132C12.7083 3.55047 13.1454 3.51051 13.5781 3.50094L13.8988 3.5Z" fill="white"/>
</svg>
