<?xml version="1.0" encoding="UTF-8"?>
<!-- Generated by Pixelmator Pro 3.3.2 -->
<svg width="200" height="200" viewBox="0 0 200 200" xmlns="http://www.w3.org/2000/svg" xmlns:xlink="http://www.w3.org/1999/xlink">
    <g id="Group">
        <path id="Path" fill="#000000" stroke="none" d="M 104.866669 88.733337 L 104.866669 158.066666 L 91.933327 158.066666 L 91.933327 83.866669 L 104.866669 88.733337 Z"/>
        <path id="path1" fill="#000000" stroke="none" d="M 53.200001 82.266663 C 53.200001 64.53334 62.866669 54.866669 74.200005 54.866669 C 85.533333 54.866669 87.133331 56.46666 100 62.933334 C 112.866669 69.400009 116.133331 71 122.599998 71 C 129.066666 71 132.266663 66.133331 132.266663 56.46666 L 143.53334 56.46666 C 145.133331 75.799995 133.866669 83.866669 122.533333 83.866669 C 111.200005 83.866669 108 82.266663 96.733337 75.799995 C 85.466667 69.333328 82.200005 67.733337 75.73333 67.733337 C 69.26667 67.733337 66.066666 72.599998 64.466667 83.866669 L 53.200001 82.266663 Z"/>
        <path id="path2" fill="#000000" stroke="none" d="M 100 200 C 44.866669 200 -0 155.133331 -0 100 C -0 44.866669 44.866669 0 100 0 C 155.133331 0 200 44.866669 200 100 C 200 155.133331 155.133331 200 100 200 Z M 100 6.466675 C 48.399998 6.466675 6.466667 48.400009 6.466667 100 C 6.466667 151.599991 48.399998 193.533325 100 193.533325 C 151.599991 193.533325 193.533325 151.599991 193.533325 100 C 193.533325 48.400009 151.599991 6.466675 100 6.466675 Z"/>
    </g>
</svg>
