<svg width="20" height="20" viewBox="0 0 20 20" fill="none" xmlns="http://www.w3.org/2000/svg">
<rect width="20" height="20" rx="10" fill="#873EFF"/>
<path d="M6.43881 14.5C7.34005 14.5 8.0633 14.055 8.60849 13.0313L9.82128 10.7615V12.6864C9.82128 13.8213 10.5556 14.5 11.6906 14.5C12.5807 14.5 13.2372 14.1106 13.8713 13.0313L16.6641 8.31363C17.2761 7.27886 16.8422 6.5 15.4958 6.5C14.7726 6.5 14.3053 6.73366 13.8825 7.52364L11.9576 11.1398V7.9242C11.9576 6.96732 11.5014 6.5 10.6558 6.5C9.98819 6.5 9.45411 6.78929 9.04242 7.5904L7.22879 11.1398V7.95758C7.22879 6.93394 6.80597 6.5 5.78232 6.5H3.69055C2.90056 6.5 2.5 6.86718 2.5 7.5459C2.5 8.22462 2.92281 8.61405 3.69055 8.61405H4.54729V12.6753C4.54729 13.8213 5.31502 14.5 6.43881 14.5Z" fill="white"/>
</svg>
