<svg width="16" height="16" viewBox="0 0 16 16" fill="none" xmlns="http://www.w3.org/2000/svg">
<path fill-rule="evenodd" clip-rule="evenodd" d="M12 2H11V0H12C14.2091 0 16 1.79086 16 4V5H14V4C14 2.89543 13.1046 2 12 2ZM5 0V2H4C2.89543 2 2 2.89543 2 4V5H0V4C0 1.79086 1.79086 0 4 0H5ZM0 11H2V12C2 13.1046 2.89543 14 4 14H5V16H4C1.79086 16 0 14.2091 0 12V11ZM11 16V14H12C13.1046 14 14 13.1046 14 12V11H16V12C16 14.2091 14.2091 16 12 16H11Z" fill="#494948"/>
<rect x="4" y="4" width="2" height="2" fill="#494948"/>
<rect x="10" y="7" width="2" height="1" fill="#494948"/>
<rect x="7" y="4" width="1" height="1" fill="#494948"/>
<rect x="11" y="9" width="1" height="1" fill="#494948"/>
<rect x="8" y="10" width="1" height="1" fill="#494948"/>
<rect x="7" y="7" width="1" height="1" fill="#494948"/>
<rect x="5" y="9" width="1" height="1" fill="#494948"/>
<rect x="4" y="10" width="1" height="2" fill="#494948"/>
<rect x="8" y="11" width="1" height="2" transform="rotate(90 8 11)" fill="#494948"/>
<rect x="9" y="8" width="1" height="2" fill="#494948"/>
<rect x="10" y="10" width="2" height="2" fill="#494948"/>
<rect x="8" y="5" width="1" height="1" fill="#494948"/>
<rect x="11" y="4" width="1" height="1" fill="#494948"/>
<rect x="8" y="6" width="2" height="1" fill="#494948"/>
<rect x="4" y="7" width="2" height="1" fill="#494948"/>
<rect x="6" y="8" width="2" height="1" fill="#494948"/>
<rect x="10" y="6" width="2" height="1" transform="rotate(-90 10 6)" fill="#494948"/>
<rect x="6" y="11" width="2" height="1" transform="rotate(-90 6 11)" fill="#494948"/>
<rect x="6" y="6" width="1" height="1" fill="#494948"/>
</svg>
