<?xml version="1.0" encoding="utf-8"?>
<svg xmlns="http://www.w3.org/2000/svg" viewBox="0 0 60 60">
    <g transform="translate(-20, -20)" style="color: #7dad3d">
        <g transform="rotate(0 50 50)">
            <rect x="47.5" y="24" rx="2.375" ry="1.2" width="5" height="12" fill="currentColor" opacity="1"></rect>
        </g>
        <g transform="rotate(30 50 50)">
            <rect x="47.5" y="24" rx="2.375" ry="1.2" width="5" height="12" fill="currentColor" opacity="0.12"></rect>
        </g>
        <g transform="rotate(60 50 50)">
            <rect x="47.5" y="24" rx="2.375" ry="1.2" width="5" height="12" fill="currentColor" opacity="0.20"></rect>
        </g>
        <g transform="rotate(90 50 50)">
            <rect x="47.5" y="24" rx="2.375" ry="1.2" width="5" height="12" fill="currentColor" opacity="0.28"></rect>
        </g>
        <g transform="rotate(120 50 50)">
            <rect x="47.5" y="24" rx="2.375" ry="1.2" width="5" height="12" fill="currentColor" opacity="0.36"></rect>
        </g>
        <g transform="rotate(150 50 50)">
            <rect x="47.5" y="24" rx="2.375" ry="1.2" width="5" height="12" fill="currentColor" opacity="0.44"></rect>
        </g>
        <g transform="rotate(180 50 50)">
            <rect x="47.5" y="24" rx="2.375" ry="1.2" width="5" height="12" fill="currentColor" opacity="0.52"></rect>
        </g>
        <g transform="rotate(210 50 50)">
            <rect x="47.5" y="24" rx="2.375" ry="1.2" width="5" height="12" fill="currentColor" opacity="0.6"></rect>
        </g>
        <g transform="rotate(240 50 50)">
            <rect x="47.5" y="24" rx="2.375" ry="1.2" width="5" height="12" fill="currentColor" opacity="0.68"></rect>
        </g>
        <g transform="rotate(270 50 50)">
            <rect x="47.5" y="24" rx="2.375" ry="1.2" width="5" height="12" fill="currentColor" opacity="0.76"></rect>
        </g>
        <g transform="rotate(300 50 50)">
            <rect x="47.5" y="24" rx="2.375" ry="1.2" width="5" height="12" fill="currentColor" opacity="0.84"></rect>
        </g>
        <g transform="rotate(330 50 50)">
            <rect x="47.5" y="24" rx="2.375" ry="1.2" width="5" height="12" fill="currentColor" opacity="0.92"></rect>
        </g>
    </g>
</svg>