<svg version="1.1" xmlns="http://www.w3.org/2000/svg">
    <symbol id="toggle-full" viewBox="0 0 16 16">
        <g>
            <path fill="currentColor" d="M3 2.5C2.44772 2.5 2 2.94772 2 3.5V6.5C2 7.05228 2.44772 7.5 3 7.5H13C13.5523 7.5 14 7.05228 14 6.5V3.5C14 2.94772 13.5523 2.5 13 2.5H3Z" />
            <path fill="currentColor" d="M3 8.5C2.44772 8.5 2 8.94771 2 9.5V12.5C2 13.0523 2.44772 13.5 3 13.5H13C13.5523 13.5 14 13.0523 14 12.5V9.5C14 8.94771 13.5523 8.5 13 8.5H3Z" />
        </g>
    </symbol>

    <symbol id="toggle-half" viewBox="0 0 16 16">
        <g>
            <path fill="currentColor" d="M2 3.5C2 2.94772 2.44772 2.5 3 2.5H13C13.5523 2.5 14 2.94772 14 3.5V4.5C14 5.05228 13.5523 5.5 13 5.5H3C2.44772 5.5 2 5.05228 2 4.5V3.5Z" />
            <path fill="currentColor" d="M2 11.5C2 10.9477 2.44772 10.5 3 10.5H13C13.5523 10.5 14 10.9477 14 11.5V12.5C14 13.0523 13.5523 13.5 13 13.5H3C2.44772 13.5 2 13.0523 2 12.5V11.5Z" />
            <path fill="currentColor" d="M3 6.5C2.44772 6.5 2 6.94772 2 7.5V8.5C2 9.05228 2.44772 9.5 3 9.5H13C13.5523 9.5 14 9.05229 14 8.5V7.5C14 6.94772 13.5523 6.5 13 6.5H3Z" />
        </g>
    </symbol>

    <symbol id="toggle-thin" viewBox="0 0 16 16">
        <g>
            <path fill="currentColor" d="M3 2.5C2.44772 2.5 2 2.94772 2 3.5C2 4.05228 2.44772 4.5 3 4.5H13C13.5523 4.5 14 4.05228 14 3.5C14 2.94772 13.5523 2.5 13 2.5H3Z" />
            <path fill="currentColor" d="M3 8.5C2.44772 8.5 2 8.94772 2 9.5C2 10.0523 2.44772 10.5 3 10.5H13C13.5523 10.5 14 10.0523 14 9.5C14 8.94772 13.5523 8.5 13 8.5H3Z" />
            <path fill="currentColor" d="M2 6.5C2 5.94772 2.44772 5.5 3 5.5H13C13.5523 5.5 14 5.94772 14 6.5C14 7.05228 13.5523 7.5 13 7.5H3C2.44772 7.5 2 7.05228 2 6.5Z" />
            <path fill="currentColor" d="M3 11.5C2.44772 11.5 2 11.9477 2 12.5C2 13.0523 2.44772 13.5 3 13.5H13C13.5523 13.5 14 13.0523 14 12.5C14 11.9477 13.5523 11.5 13 11.5H3Z" />
        </g>
    </symbol>

    <symbol id="arrow-up" viewBox="0 0 20 20">
        <g>
            <path fill="currentColor" d="M8.27996 8.01086V17.2349C8.27996 17.5196 8.51084 17.7505 8.79559 17.7505H11.2018C11.4866 17.7505 11.7175 17.5196 11.7175 17.2349V8.01086H13.6966C14.6153 8.01086 15.0754 6.90007 14.4258 6.25039L10.7279 2.55255C10.3252 2.1498 9.67224 2.1498 9.26953 2.55255L5.57169 6.25039C4.92204 6.90003 5.38215 8.01086 6.30091 8.01086H8.27996Z" />
        </g>
    </symbol>

    <symbol id="arrow-down" viewBox="0 0 20 20">
        <g>
            <path fill="currentColor" d="M11.7156 11.9896L11.7156 2.76562C11.7156 2.48087 11.4847 2.25 11.1999 2.25L8.79368 2.25C8.50892 2.25 8.27805 2.48087 8.27805 2.76562L8.27805 11.9896H6.29896C5.3802 11.9896 4.92009 13.1004 5.56973 13.7501L9.26758 17.4479C9.67033 17.8507 10.3233 17.8507 10.726 17.4479L14.4238 13.7501C15.0735 13.1005 14.6134 11.9896 13.6946 11.9896H11.7156Z" />
        </g>
    </symbol>

    <symbol id="grip" viewBox="0 0 20 20">
        <g>
            <path fill="currentColor" d="M7.5 1.25H5C4.30977 1.25 3.75 1.80977 3.75 2.5V5C3.75 5.69023 4.30977 6.25 5 6.25H7.5C8.19023 6.25 8.75 5.69023 8.75 5V2.5C8.75 1.80977 8.19023 1.25 7.5 1.25ZM7.5 7.5H5C4.30977 7.5 3.75 8.05977 3.75 8.75V11.25C3.75 11.9402 4.30977 12.5 5 12.5H7.5C8.19023 12.5 8.75 11.9402 8.75 11.25V8.75C8.75 8.05977 8.19023 7.5 7.5 7.5ZM7.5 13.75H5C4.30977 13.75 3.75 14.3098 3.75 15V17.5C3.75 18.1902 4.30977 18.75 5 18.75H7.5C8.19023 18.75 8.75 18.1902 8.75 17.5V15C8.75 14.3098 8.19023 13.75 7.5 13.75ZM15 1.25H12.5C11.8098 1.25 11.25 1.80977 11.25 2.5V5C11.25 5.69023 11.8098 6.25 12.5 6.25H15C15.6902 6.25 16.25 5.69023 16.25 5V2.5C16.25 1.80977 15.6902 1.25 15 1.25ZM15 7.5H12.5C11.8098 7.5 11.25 8.05977 11.25 8.75V11.25C11.25 11.9402 11.8098 12.5 12.5 12.5H15C15.6902 12.5 16.25 11.9402 16.25 11.25V8.75C16.25 8.05977 15.6902 7.5 15 7.5ZM15 13.75H12.5C11.8098 13.75 11.25 14.3098 11.25 15V17.5C11.25 18.1902 11.8098 18.75 12.5 18.75H15C15.6902 18.75 16.25 18.1902 16.25 17.5V15C16.25 14.3098 15.6902 13.75 15 13.75Z" />
        </g>
    </symbol>

    <symbol id="grip-slash" viewBox="0 0 20 20">
        <g>
            <path fill="currentColor" d="M17.7,17.86l.47.57a.62.62,0,0,1-.09.88l-.66.53a.66.66,0,0,1-.9-.1L15,17.93H12.74a1.17,1.17,0,0,1-1.19-1.16V14.45a1.09,1.09,0,0,1,.14-.54L9.16,10.86V11A1.17,1.17,0,0,1,8,12.13H5.59A1.18,1.18,0,0,1,4.39,11V8.65a1.18,1.18,0,0,1,1.2-1.16h.78l-1-1.18a1.17,1.17,0,0,1-1-1.15V5.09L1.48,1.57A.62.62,0,0,1,1.57.69L2.23.16a.66.66,0,0,1,.9.1l.6.71,0,.05,13.9,16.8S17.68,17.85,17.7,17.86Z"/>
            <path fill="currentColor" d="M6.23,1.68H8A1.17,1.17,0,0,1,9.16,2.84V5.23Z"/>
            <path fill="currentColor" d="M11.63,8.22a1.2,1.2,0,0,1,1.11-.73h2.38a1.18,1.18,0,0,1,1.2,1.16V11a1.18,1.18,0,0,1-1.2,1.16h-.25Z"/>
            <path fill="currentColor" d="M12.74,1.68h2.38a1.18,1.18,0,0,1,1.2,1.16V5.16a1.18,1.18,0,0,1-1.2,1.16H12.74a1.17,1.17,0,0,1-1.19-1.16V2.84A1.17,1.17,0,0,1,12.74,1.68Z"/>
            <path fill="currentColor" d="M5.59,13.29H8a1.17,1.17,0,0,1,1.19,1.16v2.32A1.17,1.17,0,0,1,8,17.93H5.59a1.18,1.18,0,0,1-1.2-1.16V14.45A1.18,1.18,0,0,1,5.59,13.29Z"/>
        </g>
    </symbol>

    <symbol id="warehouse" viewBox="0 0 14 13">
        <g>
            <path fill="currentColor" d="M12.4399 3.34924C12.6821 3.49097 12.8311 3.75061 12.8311 4.03125L12.8315 11.5C12.8315 12.218 12.2495 12.8 11.5315 12.8H8.99561C8.33489 12.7831 7.72855 12.2466 7.70858 11.5859C7.70726 11.5422 7.70654 11.5004 7.70654 11.4609C7.70654 10.829 7.22346 10.1892 6.43164 10.1875C5.63982 10.1892 5.15625 10.829 5.15625 11.4609C5.15625 11.5004 5.15553 11.5422 5.15421 11.5859C5.13424 12.2466 4.5279 12.7831 3.86719 12.8H1.33125C0.61328 12.8 0.03125 12.218 0.03125 11.5L0.0314941 4.03125C0.0314941 3.75061 0.180664 3.49097 0.422852 3.34924L3.00806 1.83594L5.39951 0.395236C6.03443 0.0127325 6.82884 0.0127572 7.46374 0.395301L9.85474 1.83594L12.4399 3.34924Z" />
        </g>
    </symbol>

    <symbol id="warehouse_stroke" viewBox="0 0 14 13">
        <g>
            <path stroke="currentColor" fill="transparent" d="M12.8124 3.78075L12.8124 3.78079C12.9014 3.83283 12.9561 3.92823 12.9561 4.03125V4.03128L12.9565 11.5C12.9565 11.5001 12.9565 11.5001 12.9565 11.5001C12.9565 11.9419 12.5984 12.3 12.1565 12.3H9.62781C9.2003 12.286 8.84426 11.9315 8.83336 11.5708C8.83216 11.5312 8.83154 11.4944 8.83154 11.4609C8.83154 10.5928 8.16322 9.68988 7.05772 9.6875L7.05556 9.6875C5.9503 9.68988 5.28125 10.5925 5.28125 11.4609C5.28125 11.4944 5.28064 11.5312 5.27944 11.5708C5.26854 11.9315 4.91249 12.286 4.48499 12.3H1.95625C1.51443 12.3 1.15626 11.9419 1.15625 11.5001C1.15625 11.5001 1.15625 11.5001 1.15625 11.5L1.15649 4.03127V4.03125C1.15649 3.92853 1.21118 3.83298 1.30038 3.78079L1.30044 3.78075L3.88565 2.26744L3.88567 2.26748L3.89107 2.26422L6.28252 0.823521C6.75871 0.536643 7.35452 0.536662 7.83069 0.82357L10.2217 2.26421L10.2217 2.26424L10.2271 2.26744L12.8124 3.78075Z" />
        </g>
    </symbol>

    <symbol id="wave" viewBox="0 0 278 270">
        <g>
            <path fill="currentColor" fill-opacity=".06" d="M47.682 137.988c-5.728 5.955-5.659 15.429.208 21.299l40.41 40.43c21.23 17.44 33.921 26.963 50.59 33.617 16.669 6.654 42.791.517 62.65-19.352s19.859-40.838 18.075-52.144l-12.66-80.212c-1.309-8.297-9.094-13.962-17.387-12.652-8.294 1.31-13.956 9.1-12.646 17.397l3.19 20.212-63.422-63.456c-5.867-5.87-15.336-5.94-21.288-.208-6.142 5.914-6.028 15.9 0 21.931l47.088 47.113-2.15 2.151-58.05-58.08c-5.867-5.87-15.336-5.94-21.288-.209-6.142 5.915-6.028 15.901 0 21.932l57.838 57.868-2.15 2.151-47.569-47.594c-5.867-5.87-15.336-5.939-21.288-.208-6.142 5.915-6.027 15.901 0 21.932l47.357 47.381-2.15 2.151-23.438-23.45c-6.028-6.031-16.009-6.145-21.92 0zm28.433 131.569c2.384 1.106 5.213.07 6.32-2.316 1.106-2.386.07-5.217-2.315-6.323-32.762-15.207-58.384-42.94-70.895-76.864-.91-2.467-3.646-3.729-6.112-2.819-2.466.911-3.727 3.649-2.817 6.116 13.383 36.289 40.777 65.941 75.819 82.206zm-2.054-28.215c2.246 1.365 5.173.649 6.538-1.598 1.364-2.248.649-5.177-1.598-6.542-18.042-10.962-32.72-26.824-42.234-45.677-1.184-2.348-4.047-3.29-6.393-2.105s-3.288 4.049-2.104 6.397c10.317 20.444 26.229 37.64 45.79 49.525zM201.886.443c-2.385-1.106-5.214-.07-6.32 2.316-1.107 2.386-.07 5.217 2.314 6.323 32.762 15.207 58.384 42.94 70.895 76.864.91 2.467 3.646 3.729 6.112 2.819 2.466-.91 3.727-3.649 2.817-6.116-13.383-36.29-40.777-65.941-75.818-82.206zm2.05 28.025c-2.246-1.365-5.173-.649-6.538 1.599-1.364 2.248-.649 5.176 1.598 6.541 18.042 10.962 32.721 26.825 42.234 45.678 1.185 2.347 4.047 3.29 6.393 2.105 2.347-1.186 3.288-4.05 2.104-6.397-10.317-20.445-26.228-37.64-45.791-49.526z"/>
        </g>
    </symbol>

    <symbol id="cart" viewBox="0 0 20 20">
        <g>
            <path fill="currentColor" d="M17.5047 11.416L18.982 4.91597C19.0887 4.44666 18.7319 3.99976 18.2507 3.99976H5.97623L5.68979 2.59944C5.61841 2.25041 5.31129 1.99976 4.95501 1.99976H1.75098C1.33676 1.99976 1.00098 2.33554 1.00098 2.74976V3.24976C1.00098 3.66397 1.33676 3.99976 1.75098 3.99976H3.93482L6.13007 14.7321C5.60488 15.0341 5.25098 15.6004 5.25098 16.2498C5.25098 17.2163 6.03448 17.9998 7.00098 17.9998C7.96748 17.9998 8.75098 17.2163 8.75098 16.2498C8.75098 15.7599 8.54951 15.3174 8.22523 14.9998H14.7767C14.4524 15.3174 14.251 15.7599 14.251 16.2498C14.251 17.2163 15.0345 17.9998 16.001 17.9998C16.9675 17.9998 17.751 17.2163 17.751 16.2498C17.751 15.5569 17.3482 14.9581 16.7641 14.6746L16.9365 13.916C17.0432 13.4467 16.6865 12.9998 16.2052 12.9998H7.81713L7.6126 11.9998H16.7734C17.1236 11.9998 17.4271 11.7574 17.5047 11.416Z"/>
        </g>
    </symbol>

    <symbol id="cart-slash" viewBox="0 0 640 512">
        <g>
            <path fill="currentColor" d="M633.8,458.1l-173-133.7L514.1,64H584c13.3,0,24-10.7,24-24V24c0-13.3-10.7-24-24-24H481.5c-11.4,0-21.2,8-23.5,19.2 L448.8,64H123.9L45.5,3.4c-7-5.4-17-4.2-22.5,2.8c0,0,0,0,0,0L3.4,31.5C-2,38.4-0.8,48.4,6.1,53.8l584.9,452c0,0,0.1,0.1,0.1,0.1 l3.5,2.7c7,5.4,17,4.2,22.5-2.8c0,0,0,0,0,0l19.6-25.3C642.1,473.6,640.8,463.5,633.8,458.1z"/>
            <path fill="currentColor" d="M370,416l-82.8-64H121.5c-15.4,0-26.8,14.3-23.4,29.3l5.5,24.3C84.9,414.7,72,433.8,72,456c0,30.9,25.1,56,56,56 c30.9,0,56-25.1,56-56c0-15.7-6.4-29.8-16.8-40H370z"/>
            <path fill="currentColor" d="M103.3,320h142.5L49.7,168.4l30.2,132.9C82.4,312.2,92.1,320,103.3,320z"/>
            <path fill="currentColor" d="M374,419c-8.7,9.9-14,22.8-14,37c0,30.9,25.1,56,56,56c19.3,0,36.3-9.8,46.4-24.6L374,419z"/>
        </g>
    </symbol>

    <symbol id="empty-image" viewBox="0 0 64 64">
        <g>
            <path fill="currentColor" fill-opacity="0.33" d="M52.7999 54.4C55.4499 54.4 57.5999 52.25 57.5999 49.6V20.8C57.5999 18.15 55.4499 16 52.7999 16H43.9999L42.7599 12.71C42.0599 10.84 40.2699 9.59998 38.2699 9.59998H25.7199C23.7199 9.59998 21.9299 10.84 21.2299 12.71L19.9999 16H11.1999C8.5499 16 6.3999 18.15 6.3999 20.8V49.6C6.3999 52.25 8.5499 54.4 11.1999 54.4H52.7999ZM31.9999 23.2C38.6199 23.2 43.9999 28.58 43.9999 35.2C43.9999 41.82 38.6199 47.2 31.9999 47.2C25.3799 47.2 19.9999 41.82 19.9999 35.2C19.9999 28.58 25.3799 23.2 31.9999 23.2ZM30.143 28.5238C30.143 27.4982 30.9745 26.6667 32.0002 26.6667C33.0258 26.6667 33.8573 27.4982 33.8573 28.5238V33.4762H38.8097C39.8354 33.4762 40.6668 34.3077 40.6668 35.3334C40.6668 36.359 39.8354 37.1905 38.8097 37.1905H33.8573V42.1429C33.8573 43.1686 33.0258 44 32.0002 44C30.9745 44 30.143 43.1686 30.143 42.1429V37.1905H25.1906C24.165 37.1905 23.3335 36.359 23.3335 35.3334C23.3335 34.3077 24.165 33.4762 25.1906 33.4762H30.143V28.5238Z"/>
        </g>
    </symbol>

    <symbol id="empty-image-2" viewBox="0 0 16 12">
        <g>
            <path fill="currentColor" d="M5.52088 0C6.20134 0 6.7536 0.552259 6.7536 1.23272C6.7536 1.91318 6.20134 2.46544 5.52088 2.46544C4.84042 2.46544 4.28816 1.91318 4.28816 1.23272C4.28816 0.552259 4.84042 0 5.52088 0ZM15.3826 11.0945H0.617118C0.104306 11.0945 -0.18415 10.504 0.131426 10.0997L3.2009 6.15251C3.44251 5.84186 3.90971 5.83446 4.16119 6.13771L6.7536 9.25773L10.5726 4.33671C10.8216 4.01497 11.3085 4.0199 11.5526 4.34534L15.8757 10.1083C16.1802 10.5151 15.8905 11.0945 15.3826 11.0945Z" />
        </g>
    </symbol>

    <symbol id="trash-alt" viewBox="1 1 19 19">
        <g>
            <path fill="currentColor" d="M2.99902 4.62476V3.74976C2.99902 3.33413 3.3334 2.99976 3.74902 2.99976H7.24902L7.54277 2.41538C7.66777 2.15913 7.92715 1.99976 8.21152 1.99976H11.7834C12.0678 1.99976 12.3271 2.15913 12.4553 2.41538L12.749 2.99976H16.249C16.6646 2.99976 16.999 3.33413 16.999 3.74976V4.62476C16.999 4.83101 16.8303 4.99976 16.624 4.99976H3.37402C3.16777 4.99976 2.99902 4.83101 2.99902 4.62476ZM15.999 6.37476V16.4998C15.999 17.3279 15.3271 17.9998 14.499 17.9998H5.49902C4.6709 17.9998 3.99902 17.3279 3.99902 16.4998V6.37476C3.99902 6.16851 4.16777 5.99976 4.37402 5.99976H15.624C15.8303 5.99976 15.999 6.16851 15.999 6.37476ZM7.49902 8.49976C7.49902 8.22476 7.27402 7.99976 6.99902 7.99976C6.72402 7.99976 6.49902 8.22476 6.49902 8.49976V15.4998C6.49902 15.7748 6.72402 15.9998 6.99902 15.9998C7.27402 15.9998 7.49902 15.7748 7.49902 15.4998V8.49976ZM10.499 8.49976C10.499 8.22476 10.274 7.99976 9.99902 7.99976C9.72402 7.99976 9.49902 8.22476 9.49902 8.49976V15.4998C9.49902 15.7748 9.72402 15.9998 9.99902 15.9998C10.274 15.9998 10.499 15.7748 10.499 15.4998V8.49976ZM13.499 8.49976C13.499 8.22476 13.274 7.99976 12.999 7.99976C12.724 7.99976 12.499 8.22476 12.499 8.49976V15.4998C12.499 15.7748 12.724 15.9998 12.999 15.9998C13.274 15.9998 13.499 15.7748 13.499 15.4998V8.49976Z" />
        </g>
    </symbol>

    <symbol id="trash-alt-slash" viewBox="0 0 20 20">
        <g>
            <path fill="currentColor" fill-rule="evenodd" d="M17.87,19.37A.62.62,0,0,0,18,18.5l-.17-.23,0-.05L5.58,1.55l0-.05L4.67.3A.67.67,0,0,0,3.76.15L3,.63a.61.61,0,0,0-.16.87L4,3H3a.77.77,0,0,0-.79.75v.87a.39.39,0,0,0,.4.38H5.46l.73,1H3.66a.39.39,0,0,0-.4.37V16.51A1.54,1.54,0,0,0,4.83,18h9.44a1.7,1.7,0,0,0,.64-.13l1.33,1.82a.67.67,0,0,0,.91.15ZM12.7,16a.53.53,0,0,0,.52-.43l-1.05-1.42v1.35A.52.52,0,0,0,12.7,16Zm-2.62-.5V11.3L9,9.87v5.64a.51.51,0,0,0,.52.5A.52.52,0,0,0,10.08,15.51Zm-4.2-7A.51.51,0,0,1,6.41,8a.51.51,0,0,1,.52.5v7a.51.51,0,0,1-.52.5.52.52,0,0,1-.53-.5Z"/>
            <path fill="currentColor" d="M7.78,2h3.65a.8.8,0,0,1,.7.41l.3.59H16.1a.76.76,0,0,1,.79.75v.87A.39.39,0,0,1,16.5,5H10Z"/>
            <path fill="currentColor" d="M10.72,6h4.73a.39.39,0,0,1,.39.37V13L13.22,9.42V8.51A.51.51,0,0,0,12.7,8a.52.52,0,0,0-.39.16Z"/>
        </g>
    </symbol>

    <symbol id="plugins" viewBox="0 0 20 20">
        <g>
            <path fill="currentColor" fill-rule="evenodd" clip-rule="evenodd" d="M4 3C3.44772 3 3 3.44772 3 4V8C3 8.55228 3.44772 9 4 9H8C8.55228 9 9 8.55228 9 8V4C9 3.44772 8.55228 3 8 3H4ZM14.6429 5.35714H16.5714C16.8081 5.35714 17 5.54906 17 5.78571V6.21429C17 6.45094 16.8081 6.64286 16.5714 6.64286H14.6429V8.57143C14.6429 8.80808 14.4509 9 14.2143 9H13.7857C13.5491 9 13.3571 8.80808 13.3571 8.57143V6.64286H11.4286C11.1919 6.64286 11 6.45094 11 6.21429V5.78571C11 5.54906 11.1919 5.35714 11.4286 5.35714H13.3571V3.42857C13.3571 3.19192 13.5491 3 13.7857 3H14.2143C14.4509 3 14.6429 3.19192 14.6429 3.42857V5.35714ZM3 12C3 11.4477 3.44772 11 4 11H8C8.55228 11 9 11.4477 9 12V16C9 16.5523 8.55228 17 8 17H4C3.44772 17 3 16.5523 3 16V12ZM12 11C11.4477 11 11 11.4477 11 12V16C11 16.5523 11.4477 17 12 17H16C16.5523 17 17 16.5523 17 16V12C17 11.4477 16.5523 11 16 11H12Z"/>
        </g>
    </symbol>

    <symbol id="folder-dynamic" viewBox="0 0 20 20">
        <g>
            <path fill="currentColor" fill-rule="evenodd" clip-rule="evenodd" d="M1 4.55807C1 3.70113 1.70113 3 2.55807 3H6.58714C7.00003 3 7.39661 3.16433 7.68875 3.45647L8.33388 4.1016C8.62602 4.39374 9.0226 4.55807 9.43549 4.55807H15.0226C15.8796 4.55807 16.5807 5.2592 16.5807 6.11614V9.7633C16.0961 9.53271 15.5734 9.37182 15.0226 9.29314V9.2901C14.7679 9.25348 14.5085 9.23228 14.2436 9.23228C11.4975 9.23228 9.23134 11.2648 8.85273 13.9065C8.81612 14.1612 8.79035 14.4207 8.79035 14.6855C8.79035 14.9504 8.81612 15.2098 8.85273 15.4646H2.55807C1.70113 15.4646 1 14.7634 1 13.9065V4.55807ZM11 14.7498C11 12.9615 12.4615 11.5 14.2498 11.5C16.038 11.5 17.4995 12.9615 17.4995 14.7498C17.4995 15.4256 17.2901 16.0551 16.9346 16.5767L17.4339 17.076C17.5748 17.2168 17.4756 17.4579 17.2763 17.4579H15.9825C15.8902 17.4806 15.7935 17.4786 15.7022 17.4521C15.6109 17.4256 15.5282 17.3755 15.4623 17.3069C15.3965 17.2383 15.3499 17.1535 15.3272 17.0612C15.3045 16.9689 15.3065 16.8722 15.333 16.7809V15.5157C15.333 15.3163 15.5741 15.2167 15.7149 15.357L16.1486 15.7907C16.3179 15.4824 16.4163 15.129 16.4163 14.7498C16.4163 13.5471 15.4524 12.5833 14.2498 12.5833C13.0471 12.5833 12.0833 13.5471 12.0833 14.7498C12.0833 15.8035 12.8287 16.6726 13.816 16.8729C13.9569 16.9015 14.0806 16.9849 14.1599 17.1047C14.2393 17.2246 14.2678 17.371 14.2392 17.5118C14.2106 17.6527 14.1272 17.7764 14.0073 17.8557C13.8875 17.9351 13.7411 17.9636 13.6002 17.935C12.1156 17.6338 11 16.3164 11 14.7498Z" />
        </g>
    </symbol>

    <symbol id="folder-tree" viewBox="0 0 576 512">
        <g>
            <path fill="currentColor" d="M544 32h-112l-32-32H320c-17.62 0-32 14.38-32 32v160c0 17.62 14.38 32 32 32h224c17.62 0 32-14.38 32-32V64C576 46.38 561.6 32 544 32zM544 320h-112l-32-32H320c-17.62 0-32 14.38-32 32v160c0 17.62 14.38 32 32 32h224c17.62 0 32-14.38 32-32v-128C576 334.4 561.6 320 544 320zM64 16C64 7.125 56.88 0 48 0h-32C7.125 0 0 7.125 0 16V416c0 17.62 14.38 32 32 32h224v-64H64V160h192V96H64V16z" />
        </g>
    </symbol>

    <symbol id="plus" viewBox="4 4 12 12">
        <g>
            <path fill="currentColor" d="M15.3333 9.33333H10.6667V4.66667C10.6667 4.29867 10.368 4 10 4C9.632 4 9.33333 4.29867 9.33333 4.66667V9.33333H4.66667C4.29867 9.33333 4 9.632 4 10C4 10.368 4.29867 10.6667 4.66667 10.6667H9.33333V15.3333C9.33333 15.7013 9.632 16 10 16C10.368 16 10.6667 15.7013 10.6667 15.3333V10.6667H15.3333C15.7013 10.6667 16 10.368 16 10C16 9.632 15.7013 9.33333 15.3333 9.33333Z" />
        </g>
    </symbol>

    <symbol id="chevron-double-up" viewBox="0 0 20 20">
        <g>
            <path fill="currentColor" d="M9.98786 4.00009C9.78614 4.00331 9.59359 4.0849 9.45097 4.22759L3.23875 10.4398C3.16422 10.5114 3.10472 10.5971 3.06373 10.6919C3.02275 10.7867 3.00109 10.8888 3.00004 10.9921C2.99899 11.0954 3.01856 11.1979 3.05761 11.2936C3.09666 11.3892 3.15441 11.4761 3.22746 11.5492C3.30052 11.6222 3.38741 11.68 3.48306 11.719C3.57872 11.7581 3.6812 11.7776 3.78451 11.7766C3.88782 11.7755 3.98988 11.7539 4.08471 11.7129C4.17955 11.6719 4.26525 11.6124 4.33681 11.5379L10 5.87468L15.6632 11.5379C15.7347 11.6124 15.8204 11.6719 15.9153 11.7129C16.0101 11.7539 16.1122 11.7755 16.2155 11.7766C16.3188 11.7776 16.4213 11.7581 16.5169 11.719C16.6126 11.68 16.6995 11.6222 16.7725 11.5492C16.8456 11.4761 16.9033 11.3892 16.9424 11.2936C16.9814 11.1979 17.001 11.0954 17 10.9921C16.9989 10.8888 16.9773 10.7867 16.9363 10.6919C16.8953 10.5971 16.8358 10.5114 16.7612 10.4398L10.549 4.22759C10.4755 4.15402 10.3879 4.09597 10.2915 4.05689C10.1951 4.01781 10.0919 3.9985 9.98786 4.00009ZM9.98786 8.65926C9.78614 8.66247 9.59359 8.74406 9.45097 8.88675L3.23875 15.099C3.16422 15.1705 3.10472 15.2562 3.06373 15.3511C3.02275 15.4459 3.00109 15.548 3.00004 15.6513C2.99899 15.7546 3.01856 15.8571 3.05761 15.9527C3.09666 16.0484 3.15441 16.1353 3.22746 16.2083C3.30052 16.2814 3.38741 16.3391 3.48306 16.3782C3.57872 16.4172 3.6812 16.4368 3.78451 16.4357C3.88782 16.4347 3.98988 16.413 4.08471 16.372C4.17955 16.3311 4.26525 16.2716 4.33681 16.197L10 10.5338L15.6632 16.197C15.7347 16.2716 15.8204 16.3311 15.9153 16.372C16.0101 16.413 16.1122 16.4347 16.2155 16.4357C16.3188 16.4368 16.4213 16.4172 16.5169 16.3782C16.6126 16.3391 16.6995 16.2814 16.7725 16.2083C16.8456 16.1353 16.9033 16.0484 16.9424 15.9527C16.9814 15.8571 17.001 15.7546 17 15.6513C16.9989 15.548 16.9773 15.4459 16.9363 15.3511C16.8953 15.2562 16.8358 15.1705 16.7612 15.099L10.549 8.88675C10.4755 8.81319 10.3879 8.75514 10.2915 8.71606C10.1951 8.67698 10.0919 8.65766 9.98786 8.65926Z" />
        </g>
    </symbol>

    <symbol id="chevron-double-down" viewBox="0 0 20 20">
        <g>
            <path fill="currentColor" d="M16.2048 4.00022C15.9999 4.00506 15.8053 4.09067 15.6632 4.2384L9.99832 9.90331L4.33342 4.2384C4.26103 4.16399 4.17446 4.10485 4.07883 4.06446C3.9832 4.02407 3.88045 4.00326 3.77664 4.00325C3.62211 4.00329 3.47111 4.04941 3.34294 4.13572C3.21476 4.22203 3.11524 4.34461 3.0571 4.48777C2.99895 4.63094 2.98482 4.78819 3.01652 4.93943C3.04821 5.09067 3.12429 5.22902 3.23503 5.33679L9.44913 11.5509C9.5948 11.6965 9.79235 11.7783 9.99832 11.7783C10.2043 11.7783 10.4018 11.6965 10.5475 11.5509L16.7616 5.33679C16.8744 5.22832 16.9518 5.0883 16.9837 4.93508C17.0156 4.78186 17.0004 4.62258 16.9403 4.47811C16.8801 4.33365 16.7777 4.21072 16.6464 4.12545C16.5152 4.04017 16.3613 3.99652 16.2048 4.00022ZM16.2048 8.66079C15.9999 8.66563 15.8053 8.75125 15.6632 8.89898L9.99832 14.5639L4.33342 8.89898C4.26103 8.82457 4.17446 8.76542 4.07883 8.72503C3.9832 8.68464 3.88045 8.66383 3.77664 8.66382C3.62211 8.66387 3.47111 8.70999 3.34294 8.7963C3.21476 8.88261 3.11524 9.00518 3.0571 9.14834C2.99895 9.29151 2.98482 9.44877 3.01652 9.60001C3.04821 9.75124 3.12429 9.88959 3.23503 9.99737L9.44913 16.2115C9.5948 16.3571 9.79235 16.4389 9.99832 16.4389C10.2043 16.4389 10.4018 16.3571 10.5475 16.2115L16.7616 9.99737C16.8744 9.88889 16.9518 9.74887 16.9837 9.59565C17.0156 9.44243 17.0004 9.28315 16.9403 9.13869C16.8801 8.99422 16.7777 8.8713 16.6464 8.78602C16.5152 8.70075 16.3613 8.6571 16.2048 8.66079Z" />
        </g>
    </symbol>

    <symbol id="times" viewBox="0 0 20 20">
        <g>
            <path fill="currentColor" d="M3.87754 3.00038C3.70379 3.00043 3.534 3.05229 3.38988 3.14934C3.24576 3.24639 3.13385 3.38421 3.06847 3.54519C3.00309 3.70617 2.9872 3.883 3.02284 4.05305C3.05848 4.22311 3.14402 4.37868 3.26854 4.49986L8.76493 9.99625L3.26854 15.4926C3.18471 15.5731 3.11779 15.6695 3.07169 15.7762C3.02558 15.8829 3.00123 15.9977 3.00005 16.1139C2.99886 16.2301 3.02088 16.3453 3.0648 16.4529C3.10873 16.5605 3.17367 16.6582 3.25584 16.7404C3.33801 16.8226 3.43575 16.8875 3.54334 16.9314C3.65092 16.9754 3.76619 16.9974 3.88239 16.9962C3.99859 16.995 4.11339 16.9707 4.22006 16.9246C4.32673 16.8785 4.42312 16.8115 4.50361 16.7277L10 11.2313L15.4964 16.7277C15.5769 16.8115 15.6733 16.8785 15.7799 16.9246C15.8866 16.9707 16.0014 16.995 16.1176 16.9962C16.2338 16.9974 16.3491 16.9754 16.4567 16.9315C16.5642 16.8875 16.662 16.8226 16.7442 16.7404C16.8263 16.6582 16.8913 16.5605 16.9352 16.4529C16.9791 16.3453 17.0011 16.2301 17 16.1139C16.9988 15.9977 16.9744 15.8829 16.9283 15.7762C16.8822 15.6695 16.8153 15.5731 16.7315 15.4926L11.2351 9.99625L16.7315 4.49986C16.8577 4.37718 16.9439 4.21923 16.9788 4.04671C17.0137 3.87419 16.9956 3.69516 16.927 3.53306C16.8584 3.37097 16.7425 3.23338 16.5943 3.13833C16.4462 3.04327 16.2728 2.99519 16.0969 3.00038C15.87 3.00714 15.6546 3.10198 15.4964 3.26479L10 8.76119L4.50361 3.26479C4.42221 3.18112 4.32487 3.11462 4.21734 3.0692C4.10981 3.02379 3.99427 3.00039 3.87754 3.00038Z" />
        </g>
    </symbol>

    <symbol id="sort" viewBox="0 0 20 20">
        <g>
            <path fill="currentColor" d="M6.1893 2C6.02675 2 5.86356 2.06074 5.73969 2.18461L3.12991 4.99983C2.84331 5.30854 3.06199 5.80971 3.48275 5.80971H5.42408V9.62092C5.42265 9.72192 5.44131 9.82221 5.47897 9.91594C5.51664 10.0097 5.57256 10.095 5.64348 10.1669C5.7144 10.2388 5.79891 10.296 5.8921 10.3349C5.98529 10.3739 6.0853 10.394 6.18632 10.394C6.28733 10.394 6.38734 10.3739 6.48053 10.3349C6.57372 10.296 6.65823 10.2388 6.72916 10.1669C6.80008 10.095 6.856 10.0097 6.89366 9.91594C6.93133 9.82221 6.94999 9.72192 6.94856 9.62092V5.80971H8.89436C9.31588 5.80971 9.53455 5.30854 9.24719 4.99983L6.63741 2.18461C6.51355 2.06074 6.35184 2 6.1893 2ZM13.8087 2.76075C13.388 2.76075 13.0465 3.10224 13.0465 3.52299C13.0465 3.94375 13.388 4.28523 13.8087 4.28523C14.2295 4.28523 14.571 3.94375 14.571 3.52299C14.571 3.10224 14.2295 2.76075 13.8087 2.76075ZM13.8087 5.80971C13.388 5.80971 13.0465 6.1512 13.0465 6.57195C13.0465 6.99271 13.388 7.3342 13.8087 7.3342C14.2295 7.3342 14.571 6.99271 14.571 6.57195C14.571 6.1512 14.2295 5.80971 13.8087 5.80971ZM13.7968 8.84826C13.5949 8.85141 13.4025 8.93454 13.2618 9.0794C13.1212 9.22426 13.0437 9.41901 13.0465 9.62092V13.4321H11.1052C10.6844 13.4321 10.4657 13.9333 10.7523 14.242L13.3621 17.0572C13.6098 17.305 14.0121 17.305 14.2598 17.0572L16.8696 14.242C17.157 13.9333 16.9383 13.4321 16.5168 13.4321H14.571V9.62092C14.5724 9.51894 14.5533 9.41771 14.5149 9.32324C14.4764 9.22877 14.4194 9.14297 14.3472 9.07092C14.2751 8.99887 14.1891 8.94204 14.0946 8.9038C14 8.86555 13.8988 8.84666 13.7968 8.84826ZM6.18632 11.9076C5.76556 11.9076 5.42408 12.2491 5.42408 12.6699C5.42408 13.0906 5.76556 13.4321 6.18632 13.4321C6.60707 13.4321 6.94856 13.0906 6.94856 12.6699C6.94856 12.2491 6.60707 11.9076 6.18632 11.9076ZM6.18632 14.9566C5.76556 14.9566 5.42408 15.2981 5.42408 15.7188C5.42408 16.1396 5.76556 16.4811 6.18632 16.4811C6.60707 16.4811 6.94856 16.1396 6.94856 15.7188C6.94856 15.2981 6.60707 14.9566 6.18632 14.9566Z" />
        </g>
    </symbol>

    <symbol id="list" viewBox="0 0 16 16">
        <g>
            <path fill="currentColor" d="M1.77778 0C0.795556 0 0 0.795556 0 1.77778V14.2222C0 15.2044 0.795556 16 1.77778 16H14.2222C15.2044 16 16 15.2044 16 14.2222V1.77778C16 0.795556 15.2044 0 14.2222 0H1.77778ZM1.77778 4.44444H14.2222V14.2222H1.77778V4.44444ZM4 7.11111C3.75467 7.11111 3.55556 7.31022 3.55556 7.55556V8.44444C3.55556 8.68978 3.75467 8.88889 4 8.88889H4.88889C5.13422 8.88889 5.33333 8.68978 5.33333 8.44444V7.55556C5.33333 7.31022 5.13422 7.11111 4.88889 7.11111H4ZM7.55556 7.11111C7.31022 7.11111 7.11111 7.31022 7.11111 7.55556V8.44444C7.11111 8.68978 7.31022 8.88889 7.55556 8.88889H12C12.2453 8.88889 12.4444 8.68978 12.4444 8.44444V7.55556C12.4444 7.31022 12.2453 7.11111 12 7.11111H7.55556ZM4 10.6667C3.75467 10.6667 3.55556 10.8658 3.55556 11.1111V12C3.55556 12.2453 3.75467 12.4444 4 12.4444H4.88889C5.13422 12.4444 5.33333 12.2453 5.33333 12V11.1111C5.33333 10.8658 5.13422 10.6667 4.88889 10.6667H4ZM7.55556 10.6667C7.31022 10.6667 7.11111 10.8658 7.11111 11.1111V12C7.11111 12.2453 7.31022 12.4444 7.55556 12.4444H12C12.2453 12.4444 12.4444 12.2453 12.4444 12V11.1111C12.4444 10.8658 12.2453 10.6667 12 10.6667H7.55556Z" />
        </g>
    </symbol>

    <symbol id="list-auto" viewBox="0 0 16 16">
        <g>
            <path fill="currentColor" d="M0 1.71431C0 0.767155 0.767155 0 1.71431 0H13.7145C14.6617 0 15.4288 0.767155 15.4288 1.71431V6.50401C14.6342 6.18172 13.7676 6.00009 12.8573 6.00009C11.6539 6.00009 10.524 6.3121 9.54088 6.85725H7.71441C7.24126 6.85725 6.85725 7.24126 6.85725 7.71441C6.85725 8.11898 7.14722 8.44477 7.52523 8.53306L7.50849 8.57156C6.56647 9.74587 6.00009 11.2347 6.00009 12.8573C6.00009 13.7676 6.18172 14.6342 6.50401 15.4288H1.71431C0.767155 15.4288 0 14.6617 0 13.7145V1.71431ZM4.71436 3.42862H3.8572C3.62063 3.42862 3.42862 3.62063 3.42862 3.8572V4.71436C3.42862 4.95093 3.62063 5.14294 3.8572 5.14294H4.71436C4.95093 5.14294 5.14294 4.95093 5.14294 4.71436V3.8572C5.14294 3.62063 4.95093 3.42862 4.71436 3.42862ZM11.143 3.42862H7.71441C7.24126 3.42862 6.85725 3.81263 6.85725 4.28578C6.85725 4.75893 7.24126 5.14294 7.71441 5.14294H11.143C11.6162 5.14294 12.0002 4.75893 12.0002 4.28578C12.0002 3.81263 11.6162 3.42862 11.143 3.42862ZM4.71436 6.85725H3.8572C3.62063 6.85725 3.42862 7.04925 3.42862 7.28583V8.14298C3.42862 8.37956 3.62063 8.57156 3.8572 8.57156H4.71436C4.95093 8.57156 5.14294 8.37956 5.14294 8.14298V7.28583C5.14294 7.04925 4.95093 6.85725 4.71436 6.85725ZM4.71436 10.2859H3.8572C3.62063 10.2859 3.42862 10.4779 3.42862 10.7145V11.5716C3.42862 11.8082 3.62063 12.0002 3.8572 12.0002H4.71436C4.95093 12.0002 5.14294 11.8082 5.14294 11.5716V10.7145C5.14294 10.4779 4.95093 10.2859 4.71436 10.2859ZM9.5 12.7498C9.5 10.9615 10.9615 9.5 12.7498 9.5C14.538 9.5 15.9995 10.9615 15.9995 12.7498C15.9995 13.4256 15.7901 14.0551 15.4346 14.5767L15.9339 15.076C16.0748 15.2168 15.9756 15.4579 15.7763 15.4579H14.4825C14.3902 15.4806 14.2935 15.4786 14.2022 15.4521C14.1109 15.4256 14.0282 15.3755 13.9623 15.3069C13.8965 15.2383 13.8499 15.1535 13.8272 15.0612C13.8045 14.9689 13.8065 14.8722 13.833 14.7809V13.5157C13.833 13.3163 14.0741 13.2167 14.2149 13.357L14.6486 13.7907C14.8179 13.4824 14.9163 13.129 14.9163 12.7498C14.9163 11.5471 13.9524 10.5833 12.7498 10.5833C11.5471 10.5833 10.5833 11.5471 10.5833 12.7498C10.5833 13.8035 11.3287 14.6726 12.316 14.8729C12.4569 14.9015 12.5806 14.9849 12.6599 15.1047C12.7393 15.2246 12.7678 15.371 12.7392 15.5118C12.7106 15.6527 12.6272 15.7764 12.5073 15.8557C12.3875 15.9351 12.2411 15.9636 12.1002 15.935C10.6156 15.6338 9.5 14.3164 9.5 12.7498Z" />
        </g>
    </symbol>

    <symbol id="share" viewBox="0 0 20 20">
        <g>
            <path fill="currentColor" d="M5.63635 6C3.51053 6 1.81048 7.82418 2.01702 9.99291C2.19739 11.8838 3.89296 13.2727 5.7926 13.2727H7.81818C8.21963 13.2727 8.54545 12.9469 8.54545 12.5455C8.54545 12.144 8.21963 11.8182 7.81818 11.8182H5.75993C4.57884 11.8182 3.51988 10.9332 3.45879 9.75285C3.39261 8.49467 4.39271 7.45455 5.63635 7.45455H7.81818C8.21963 7.45455 8.54545 7.12873 8.54545 6.72727C8.54545 6.32582 8.21963 6 7.81818 6H5.63635ZM12.1818 6C11.7804 6 11.4545 6.32582 11.4545 6.72727C11.4545 7.12873 11.7804 7.45455 12.1818 7.45455H14.2401C15.4212 7.45455 16.4801 8.33953 16.5412 9.5199C16.6074 10.7781 15.6073 11.8182 14.3636 11.8182H12.1818C11.7804 11.8182 11.4545 12.144 11.4545 12.5455C11.4545 12.9469 11.7804 13.2727 12.1818 13.2727H14.3636C16.4895 13.2727 18.1895 11.4486 17.983 9.27984C17.8026 7.38892 16.107 6 14.2074 6H12.1818ZM7.0909 8.9091C6.68945 8.9091 6.36363 9.23492 6.36363 9.63637C6.36363 10.0378 6.68945 10.3636 7.0909 10.3636H12.9091C13.3106 10.3636 13.6364 10.0378 13.6364 9.63637C13.6364 9.23492 13.3106 8.9091 12.9091 8.9091H7.0909Z" />
        </g>
    </symbol>

    <symbol id="sku" viewBox="0 0 18 12">
        <g>
            <path fill="currentColor" d="M6.22436 0C5.84025 0 5.47188 0.152586 5.20027 0.42419L0.794848 4.82962C0.148463 5.476 0.148462 6.524 0.794847 7.17038L5.20027 11.5758C5.47188 11.8474 5.84025 12 6.22436 12H15.5555C16.3554 12 17.0038 11.3516 17.0038 10.5517V1.44828C17.0038 0.648415 16.3554 0 15.5555 0H6.22436ZM14.3141 8.23448C14.3141 8.37103 14.2024 8.48276 14.0658 8.48276H9.59688C9.46033 8.48276 9.3486 8.37103 9.3486 8.23448V7.73793C9.3486 7.60138 9.46033 7.48966 9.59688 7.48966H14.0658C14.2024 7.48966 14.3141 7.60138 14.3141 7.73793V8.23448ZM14.3141 6.24828C14.3141 6.38483 14.2024 6.49655 14.0658 6.49655H9.59688C9.46033 6.49655 9.3486 6.38483 9.3486 6.24828V5.75172C9.3486 5.61517 9.46033 5.50345 9.59688 5.50345H14.0658C14.2024 5.50345 14.3141 5.61517 14.3141 5.75172V6.24828ZM14.3141 4.26207C14.3141 4.39862 14.2024 4.51034 14.0658 4.51034H9.59688C9.46033 4.51034 9.3486 4.39862 9.3486 4.26207V3.76552C9.3486 3.62897 9.46033 3.51724 9.59688 3.51724H14.0658C14.2024 3.51724 14.3141 3.62897 14.3141 3.76552V4.26207ZM3.14171 6C3.14171 5.20014 3.79012 4.55172 4.58998 4.55172C5.38984 4.55172 6.03826 5.20014 6.03826 6C6.03826 6.79986 5.38984 7.44828 4.58998 7.44828C3.79012 7.44828 3.14171 6.79986 3.14171 6Z" />
        </g>
    </symbol>

    <symbol id="sitemap" viewBox="0 0 640 512">
        <g>
            <path fill="currentColor" d="M128 352H32c-17.67 0-32 14.33-32 32v96c0 17.67 14.33 32 32 32h96c17.67 0 32-14.33 32-32v-96c0-17.67-14.33-32-32-32zm-24-80h192v48h48v-48h192v48h48v-57.59c0-21.17-17.23-38.41-38.41-38.41H344v-64h40c17.67 0 32-14.33 32-32V32c0-17.67-14.33-32-32-32H256c-17.67 0-32 14.33-32 32v96c0 17.67 14.33 32 32 32h40v64H94.41C73.23 224 56 241.23 56 262.41V320h48v-48zm264 80h-96c-17.67 0-32 14.33-32 32v96c0 17.67 14.33 32 32 32h96c17.67 0 32-14.33 32-32v-96c0-17.67-14.33-32-32-32zm240 0h-96c-17.67 0-32 14.33-32 32v96c0 17.67 14.33 32 32 32h96c17.67 0 32-14.33 32-32v-96c0-17.67-14.33-32-32-32z" />
        </g>
    </symbol>

    <symbol id="sitemap-slash" viewBox="0 0 640 512">
        <g>
            <path fill="currentColor" d="M94.4,224C73.2,224,56,241.2,56,262.4V320h48v-48h79.7l-62.1-48H94.4z"/>
            <path fill="currentColor" d="M272,352c-17.7,0-32,14.3-32,32v96c0,17.7,14.3,32,32,32h96c17.7,0,32-14.3,32-32v-40.8L287.2,352H272z"/>
            <path fill="currentColor" d="M640,384c0-17.7-14.3-32-32-32h-96c-4.4,0-8.5,0.9-12.3,2.4L393,272h143v48h48v-57.6c0-21.2-17.2-38.4-38.4-38.4H344v-64 h40c17.7,0,32-14.3,32-32V32c0-17.7-14.3-32-32-32H256c-17.7,0-32,14.3-32,32v96c0,6.4,1.9,12.3,5.1,17.3L45.5,3.4 c-7-5.4-17-4.2-22.5,2.8c0,0,0,0,0,0L3.4,31.5c-5.4,7-4.2,17,2.8,22.5l588.4,454.7c7,5.4,17,4.2,22.5-2.8c0,0,0,0,0,0l19.6-25.3 c2.4-3.1,3.5-6.9,3.3-10.6l0,0V384z M256,160h40v37l-49.9-38.6C249.2,159.4,252.5,160,256,160z"/>
            <path fill="currentColor" d="M128,352H32c-17.7,0-32,14.3-32,32v96c0,17.7,14.3,32,32,32h96c17.7,0,32-14.3,32-32v-96C160,366.3,145.7,352,128,352z"/>
        </g>
    </symbol>

    <symbol id="list-plus" viewBox="0 0 512 512">
        <g>
            <path fill="currentColor" d="M56.9,0C25.5,0,0,25.5,0,56.9v398.2C0,486.5,25.5,512,56.9,512h398.2c31.4,0,56.9-25.5,56.9-56.9V56.9 C512,25.5,486.5,0,455.1,0H56.9z M56.9,142.2h398.2v312.9H56.9V142.2z"/>
            <path fill="currentColor" d="M360,306.7c0,8.8-7.2,16-16,16h-64v64c0,8.8-7.2,16-16,16h-16c-8.8,0-16-7.2-16-16v-64h-64c-8.8,0-16-7.2-16-16v-16 c0-8.8,7.2-16,16-16h64v-64c0-8.8,7.2-16,16-16h16c8.8,0,16,7.2,16,16v64h64c8.8,0,16,7.2,16,16V306.7z"/>
        </g>
    </symbol>

    <symbol id="list-minus" viewBox="0 0 512 512">
        <g>
            <path fill="currentColor" d="M56.9,0C25.5,0,0,25.5,0,56.9v398.2C0,486.5,25.5,512,56.9,512h398.2c31.4,0,56.9-25.5,56.9-56.9V56.9 C512,25.5,486.5,0,455.1,0H56.9z M56.9,142.2h398.2v312.9H56.9V142.2z"/>
            <path fill="currentColor" d="M368,306.7c0,8.8-7.2,16-16,16H160c-8.8,0-16-7.2-16-16v-16c0-8.8,7.2-16,16-16h192c8.8,0,16,7.2,16,16V306.7z"/>
        </g>
    </symbol>

    <symbol id="tag-minus" viewBox="0 0 512 512">
        <g>
            <path fill="currentColor" d="M497.9,225.9L286.1,14.1c-9-9-21.2-14.1-33.9-14.1H48C21.5,0,0,21.5,0,48v204.1c0,12.7,5.1,24.9,14.1,33.9l211.9,211.9 c18.7,18.7,49.1,18.7,67.9,0l204.1-204.1C516.7,275.1,516.7,244.7,497.9,225.9z M64,112c0-26.5,21.5-48,48-48s48,21.5,48,48 s-21.5,48-48,48S64,138.5,64,112z M368,264c0,8.8-7.2,16-16,16H160c-8.8,0-16-7.2-16-16v-16c0-8.8,7.2-16,16-16h192 c8.8,0,16,7.2,16,16V264z"/>
        </g>
    </symbol>
</svg>