<svg version="1.1" xmlns="http://www.w3.org/2000/svg">
    <symbol id="toggle-full" viewBox="0 0 16 16">
        <g>
            <path fill="currentColor" d="M3 2.5C2.44772 2.5 2 2.94772 2 3.5V6.5C2 7.05228 2.44772 7.5 3 7.5H13C13.5523 7.5 14 7.05228 14 6.5V3.5C14 2.94772 13.5523 2.5 13 2.5H3Z" />
            <path fill="currentColor" d="M3 8.5C2.44772 8.5 2 8.94771 2 9.5V12.5C2 13.0523 2.44772 13.5 3 13.5H13C13.5523 13.5 14 13.0523 14 12.5V9.5C14 8.94771 13.5523 8.5 13 8.5H3Z" />
        </g>
    </symbol>

    <symbol id="toggle-half" viewBox="0 0 16 16">
        <g>
            <path fill="currentColor" d="M2 3.5C2 2.94772 2.44772 2.5 3 2.5H13C13.5523 2.5 14 2.94772 14 3.5V4.5C14 5.05228 13.5523 5.5 13 5.5H3C2.44772 5.5 2 5.05228 2 4.5V3.5Z" />
            <path fill="currentColor" d="M2 11.5C2 10.9477 2.44772 10.5 3 10.5H13C13.5523 10.5 14 10.9477 14 11.5V12.5C14 13.0523 13.5523 13.5 13 13.5H3C2.44772 13.5 2 13.0523 2 12.5V11.5Z" />
            <path fill="currentColor" d="M3 6.5C2.44772 6.5 2 6.94772 2 7.5V8.5C2 9.05228 2.44772 9.5 3 9.5H13C13.5523 9.5 14 9.05229 14 8.5V7.5C14 6.94772 13.5523 6.5 13 6.5H3Z" />
        </g>
    </symbol>

    <symbol id="toggle-thin" viewBox="0 0 16 16">
        <g>
            <path fill="currentColor" d="M3 2.5C2.44772 2.5 2 2.94772 2 3.5C2 4.05228 2.44772 4.5 3 4.5H13C13.5523 4.5 14 4.05228 14 3.5C14 2.94772 13.5523 2.5 13 2.5H3Z" />
            <path fill="currentColor" d="M3 8.5C2.44772 8.5 2 8.94772 2 9.5C2 10.0523 2.44772 10.5 3 10.5H13C13.5523 10.5 14 10.0523 14 9.5C14 8.94772 13.5523 8.5 13 8.5H3Z" />
            <path fill="currentColor" d="M2 6.5C2 5.94772 2.44772 5.5 3 5.5H13C13.5523 5.5 14 5.94772 14 6.5C14 7.05228 13.5523 7.5 13 7.5H3C2.44772 7.5 2 7.05228 2 6.5Z" />
            <path fill="currentColor" d="M3 11.5C2.44772 11.5 2 11.9477 2 12.5C2 13.0523 2.44772 13.5 3 13.5H13C13.5523 13.5 14 13.0523 14 12.5C14 11.9477 13.5523 11.5 13 11.5H3Z" />
        </g>
    </symbol>

    <symbol id="arrow-up" viewBox="0 0 20 20">
        <g>
            <path fill="currentColor" d="M8.27996 8.01086V17.2349C8.27996 17.5196 8.51084 17.7505 8.79559 17.7505H11.2018C11.4866 17.7505 11.7175 17.5196 11.7175 17.2349V8.01086H13.6966C14.6153 8.01086 15.0754 6.90007 14.4258 6.25039L10.7279 2.55255C10.3252 2.1498 9.67224 2.1498 9.26953 2.55255L5.57169 6.25039C4.92204 6.90003 5.38215 8.01086 6.30091 8.01086H8.27996Z" />
        </g>
    </symbol>

    <symbol id="arrow-down" viewBox="0 0 20 20">
        <g>
            <path fill="currentColor" d="M11.7156 11.9896L11.7156 2.76562C11.7156 2.48087 11.4847 2.25 11.1999 2.25L8.79368 2.25C8.50892 2.25 8.27805 2.48087 8.27805 2.76562L8.27805 11.9896H6.29896C5.3802 11.9896 4.92009 13.1004 5.56973 13.7501L9.26758 17.4479C9.67033 17.8507 10.3233 17.8507 10.726 17.4479L14.4238 13.7501C15.0735 13.1005 14.6134 11.9896 13.6946 11.9896H11.7156Z" />
        </g>
    </symbol>

    <symbol id="grip" viewBox="0 0 20 20">
        <g>
            <path fill="currentColor" d="M7.5 1.25H5C4.30977 1.25 3.75 1.80977 3.75 2.5V5C3.75 5.69023 4.30977 6.25 5 6.25H7.5C8.19023 6.25 8.75 5.69023 8.75 5V2.5C8.75 1.80977 8.19023 1.25 7.5 1.25ZM7.5 7.5H5C4.30977 7.5 3.75 8.05977 3.75 8.75V11.25C3.75 11.9402 4.30977 12.5 5 12.5H7.5C8.19023 12.5 8.75 11.9402 8.75 11.25V8.75C8.75 8.05977 8.19023 7.5 7.5 7.5ZM7.5 13.75H5C4.30977 13.75 3.75 14.3098 3.75 15V17.5C3.75 18.1902 4.30977 18.75 5 18.75H7.5C8.19023 18.75 8.75 18.1902 8.75 17.5V15C8.75 14.3098 8.19023 13.75 7.5 13.75ZM15 1.25H12.5C11.8098 1.25 11.25 1.80977 11.25 2.5V5C11.25 5.69023 11.8098 6.25 12.5 6.25H15C15.6902 6.25 16.25 5.69023 16.25 5V2.5C16.25 1.80977 15.6902 1.25 15 1.25ZM15 7.5H12.5C11.8098 7.5 11.25 8.05977 11.25 8.75V11.25C11.25 11.9402 11.8098 12.5 12.5 12.5H15C15.6902 12.5 16.25 11.9402 16.25 11.25V8.75C16.25 8.05977 15.6902 7.5 15 7.5ZM15 13.75H12.5C11.8098 13.75 11.25 14.3098 11.25 15V17.5C11.25 18.1902 11.8098 18.75 12.5 18.75H15C15.6902 18.75 16.25 18.1902 16.25 17.5V15C16.25 14.3098 15.6902 13.75 15 13.75Z" />
        </g>
    </symbol>

    <symbol id="grip-slash" viewBox="0 0 20 20">
        <g>
            <path fill="currentColor" d="M17.7,17.86l.47.57a.62.62,0,0,1-.09.88l-.66.53a.66.66,0,0,1-.9-.1L15,17.93H12.74a1.17,1.17,0,0,1-1.19-1.16V14.45a1.09,1.09,0,0,1,.14-.54L9.16,10.86V11A1.17,1.17,0,0,1,8,12.13H5.59A1.18,1.18,0,0,1,4.39,11V8.65a1.18,1.18,0,0,1,1.2-1.16h.78l-1-1.18a1.17,1.17,0,0,1-1-1.15V5.09L1.48,1.57A.62.62,0,0,1,1.57.69L2.23.16a.66.66,0,0,1,.9.1l.6.71,0,.05,13.9,16.8S17.68,17.85,17.7,17.86Z"/>
            <path fill="currentColor" d="M6.23,1.68H8A1.17,1.17,0,0,1,9.16,2.84V5.23Z"/>
            <path fill="currentColor" d="M11.63,8.22a1.2,1.2,0,0,1,1.11-.73h2.38a1.18,1.18,0,0,1,1.2,1.16V11a1.18,1.18,0,0,1-1.2,1.16h-.25Z"/>
            <path fill="currentColor" d="M12.74,1.68h2.38a1.18,1.18,0,0,1,1.2,1.16V5.16a1.18,1.18,0,0,1-1.2,1.16H12.74a1.17,1.17,0,0,1-1.19-1.16V2.84A1.17,1.17,0,0,1,12.74,1.68Z"/>
            <path fill="currentColor" d="M5.59,13.29H8a1.17,1.17,0,0,1,1.19,1.16v2.32A1.17,1.17,0,0,1,8,17.93H5.59a1.18,1.18,0,0,1-1.2-1.16V14.45A1.18,1.18,0,0,1,5.59,13.29Z"/>
        </g>
    </symbol>

    <symbol id="warehouse" viewBox="0 0 16 16">
        <g>
            <path fill="currentColor" d="M1.59961 5.95762C1.59961 5.52615 1.81228 5.12305 2.16672 4.88274L7.28672 1.81939C7.71798 1.527 8.28122 1.527 8.71248 1.81939L13.8325 4.86961C14.1908 5.11251 14.4039 5.52151 14.3995 5.95762L14.3284 13.0369C14.3213 13.7465 13.7504 14.3179 13.0485 14.3179L10.5596 14.3696C9.85268 14.3696 9.27959 13.7902 9.27958 13.0754C9.27957 12.3607 8.70651 11.7813 7.99961 11.7813C7.2927 11.7813 6.71963 12.3607 6.71963 13.0755V13.0935C6.71963 13.8012 6.15743 14.3776 5.45758 14.3875L2.89758 14.4C2.18372 14.4101 1.59965 13.8278 1.59965 13.1059L1.59961 5.95762Z" />
            <path fill="transparent" stroke="black" stroke-opacity="0.06" d="M13.0485 13.8179V13.8178L13.0381 13.818L10.555 13.8696C10.1315 13.8671 9.77959 13.5177 9.77958 13.0754C9.77957 12.0898 8.98782 11.2813 7.99961 11.2813C7.01138 11.2813 6.21963 12.0898 6.21963 13.0755V13.0935C6.21963 13.5322 5.87308 13.8805 5.45258 13.8875L2.89515 13.9L2.89515 13.9L2.8905 13.9C2.4608 13.9061 2.09965 13.5542 2.09965 13.1059L2.09961 5.95762C2.09961 5.69466 2.2272 5.45087 2.43709 5.30364L7.54343 2.24846L7.55559 2.24119L7.56731 2.23324C7.82914 2.05572 8.17006 2.05572 8.4319 2.23324L8.44401 2.24145L8.45658 2.24894L13.5625 5.29074C13.7745 5.43961 13.9022 5.6869 13.8996 5.9526L13.8285 13.0319C13.824 13.4724 13.4711 13.8179 13.0485 13.8179Z" />
        </g>
    </symbol>

    <symbol id="wave" viewBox="0 0 278 270">
        <g>
            <path fill="currentColor" fill-opacity=".06" d="M47.682 137.988c-5.728 5.955-5.659 15.429.208 21.299l40.41 40.43c21.23 17.44 33.921 26.963 50.59 33.617 16.669 6.654 42.791.517 62.65-19.352s19.859-40.838 18.075-52.144l-12.66-80.212c-1.309-8.297-9.094-13.962-17.387-12.652-8.294 1.31-13.956 9.1-12.646 17.397l3.19 20.212-63.422-63.456c-5.867-5.87-15.336-5.94-21.288-.208-6.142 5.914-6.028 15.9 0 21.931l47.088 47.113-2.15 2.151-58.05-58.08c-5.867-5.87-15.336-5.94-21.288-.209-6.142 5.915-6.028 15.901 0 21.932l57.838 57.868-2.15 2.151-47.569-47.594c-5.867-5.87-15.336-5.939-21.288-.208-6.142 5.915-6.027 15.901 0 21.932l47.357 47.381-2.15 2.151-23.438-23.45c-6.028-6.031-16.009-6.145-21.92 0zm28.433 131.569c2.384 1.106 5.213.07 6.32-2.316 1.106-2.386.07-5.217-2.315-6.323-32.762-15.207-58.384-42.94-70.895-76.864-.91-2.467-3.646-3.729-6.112-2.819-2.466.911-3.727 3.649-2.817 6.116 13.383 36.289 40.777 65.941 75.819 82.206zm-2.054-28.215c2.246 1.365 5.173.649 6.538-1.598 1.364-2.248.649-5.177-1.598-6.542-18.042-10.962-32.72-26.824-42.234-45.677-1.184-2.348-4.047-3.29-6.393-2.105s-3.288 4.049-2.104 6.397c10.317 20.444 26.229 37.64 45.79 49.525zM201.886.443c-2.385-1.106-5.214-.07-6.32 2.316-1.107 2.386-.07 5.217 2.314 6.323 32.762 15.207 58.384 42.94 70.895 76.864.91 2.467 3.646 3.729 6.112 2.819 2.466-.91 3.727-3.649 2.817-6.116-13.383-36.29-40.777-65.941-75.818-82.206zm2.05 28.025c-2.246-1.365-5.173-.649-6.538 1.599-1.364 2.248-.649 5.176 1.598 6.541 18.042 10.962 32.721 26.825 42.234 45.678 1.185 2.347 4.047 3.29 6.393 2.105 2.347-1.186 3.288-4.05 2.104-6.397-10.317-20.445-26.228-37.64-45.791-49.526z"/>
        </g>
    </symbol>

    <symbol id="cart" viewBox="0 0 20 20">
        <g>
            <path fill="currentColor" d="M17.5047 11.416L18.982 4.91597C19.0887 4.44666 18.7319 3.99976 18.2507 3.99976H5.97623L5.68979 2.59944C5.61841 2.25041 5.31129 1.99976 4.95501 1.99976H1.75098C1.33676 1.99976 1.00098 2.33554 1.00098 2.74976V3.24976C1.00098 3.66397 1.33676 3.99976 1.75098 3.99976H3.93482L6.13007 14.7321C5.60488 15.0341 5.25098 15.6004 5.25098 16.2498C5.25098 17.2163 6.03448 17.9998 7.00098 17.9998C7.96748 17.9998 8.75098 17.2163 8.75098 16.2498C8.75098 15.7599 8.54951 15.3174 8.22523 14.9998H14.7767C14.4524 15.3174 14.251 15.7599 14.251 16.2498C14.251 17.2163 15.0345 17.9998 16.001 17.9998C16.9675 17.9998 17.751 17.2163 17.751 16.2498C17.751 15.5569 17.3482 14.9581 16.7641 14.6746L16.9365 13.916C17.0432 13.4467 16.6865 12.9998 16.2052 12.9998H7.81713L7.6126 11.9998H16.7734C17.1236 11.9998 17.4271 11.7574 17.5047 11.416Z"/>
        </g>
    </symbol>

    <symbol id="cart-slash" viewBox="0 0 20 20">
        <g>
            <path fill="currentColor" d="M9.7,13.2799998 L6.82,13.2799998 L6.61,12.2799998 L9,12.2799998 L2.05,2.27999976 L0.75,2.27999976 C0.347224846,2.27967766 0.0161108823,2.59754706 0,3 L0,3.5 C0.00538581231,3.91196206 0.338037936,4.24461419 0.75,4.25 L2.93,4.25 L5.13,15 C4.39266334,15.4224678 4.06539872,16.3135797 4.35404861,17.1128453 C4.6426985,17.912111 5.46382368,18.388489 6.30095394,18.2423477 C7.13808421,18.0962063 7.74923267,17.3697904 7.75,16.52 C7.75340557,16.0480466 7.56159856,15.5956716 7.22,15.27 L11.09,15.27 L9.7,13.2799998 Z" id="Path"></path>
            <path fill="currentColor" d="M10.53,12.28 L11.23,13.28 L12.62,15.28 L13.28,16.22 L14.67,18.22 L15.2,18.98 C15.2932498,19.1236738 15.4417816,19.2223701 15.6103615,19.2526766 C15.7789414,19.2829831 15.9525483,19.2421994 16.09,19.14 L16.8,18.66 C17.0909014,18.4545018 17.1622494,18.0531694 16.96,17.76 L16.58,17.21 C16.6766255,16.9891476 16.7276457,16.7510534 16.73,16.51 C16.7320189,15.8337574 16.3420432,15.2175957 15.73,14.93 L15.91,14.17 C15.958712,13.9469705 15.9031924,13.7138969 15.759163,13.5367796 C15.6151335,13.3596623 15.3982764,13.2577862 15.17,13.26 L13.85,13.26 L13.15,12.26 L15.77,12.26 C16.1215336,12.2587177 16.425008,12.0134439 16.5,11.67 L18,5.19 C18.0523739,4.96820634 17.9996327,4.73465174 17.8570306,4.55688754 C17.7144285,4.37912334 17.4978735,4.27697978 17.27,4.28 L7.59,4.28 L5.31,1 C5.11622184,0.720476919 4.73555717,0.645229252 4.45,0.83 L3.7,1.35 C3.42245304,1.54691989 3.35550638,1.93074745 3.55,2.21 L5,4.25" id="Path"></path>
        </g>
    </symbol>

    <symbol id="empty-image" viewBox="0 0 64 64">
        <g>
            <path fill="currentColor" fill-opacity="0.33" d="M52.7999 54.4C55.4499 54.4 57.5999 52.25 57.5999 49.6V20.8C57.5999 18.15 55.4499 16 52.7999 16H43.9999L42.7599 12.71C42.0599 10.84 40.2699 9.59998 38.2699 9.59998H25.7199C23.7199 9.59998 21.9299 10.84 21.2299 12.71L19.9999 16H11.1999C8.5499 16 6.3999 18.15 6.3999 20.8V49.6C6.3999 52.25 8.5499 54.4 11.1999 54.4H52.7999ZM31.9999 23.2C38.6199 23.2 43.9999 28.58 43.9999 35.2C43.9999 41.82 38.6199 47.2 31.9999 47.2C25.3799 47.2 19.9999 41.82 19.9999 35.2C19.9999 28.58 25.3799 23.2 31.9999 23.2ZM30.143 28.5238C30.143 27.4982 30.9745 26.6667 32.0002 26.6667C33.0258 26.6667 33.8573 27.4982 33.8573 28.5238V33.4762H38.8097C39.8354 33.4762 40.6668 34.3077 40.6668 35.3334C40.6668 36.359 39.8354 37.1905 38.8097 37.1905H33.8573V42.1429C33.8573 43.1686 33.0258 44 32.0002 44C30.9745 44 30.143 43.1686 30.143 42.1429V37.1905H25.1906C24.165 37.1905 23.3335 36.359 23.3335 35.3334C23.3335 34.3077 24.165 33.4762 25.1906 33.4762H30.143V28.5238Z"/>
        </g>
    </symbol>

    <symbol id="trash-alt" viewBox="1 1 19 19">
        <g>
            <path fill="currentColor" d="M2.99902 4.62476V3.74976C2.99902 3.33413 3.3334 2.99976 3.74902 2.99976H7.24902L7.54277 2.41538C7.66777 2.15913 7.92715 1.99976 8.21152 1.99976H11.7834C12.0678 1.99976 12.3271 2.15913 12.4553 2.41538L12.749 2.99976H16.249C16.6646 2.99976 16.999 3.33413 16.999 3.74976V4.62476C16.999 4.83101 16.8303 4.99976 16.624 4.99976H3.37402C3.16777 4.99976 2.99902 4.83101 2.99902 4.62476ZM15.999 6.37476V16.4998C15.999 17.3279 15.3271 17.9998 14.499 17.9998H5.49902C4.6709 17.9998 3.99902 17.3279 3.99902 16.4998V6.37476C3.99902 6.16851 4.16777 5.99976 4.37402 5.99976H15.624C15.8303 5.99976 15.999 6.16851 15.999 6.37476ZM7.49902 8.49976C7.49902 8.22476 7.27402 7.99976 6.99902 7.99976C6.72402 7.99976 6.49902 8.22476 6.49902 8.49976V15.4998C6.49902 15.7748 6.72402 15.9998 6.99902 15.9998C7.27402 15.9998 7.49902 15.7748 7.49902 15.4998V8.49976ZM10.499 8.49976C10.499 8.22476 10.274 7.99976 9.99902 7.99976C9.72402 7.99976 9.49902 8.22476 9.49902 8.49976V15.4998C9.49902 15.7748 9.72402 15.9998 9.99902 15.9998C10.274 15.9998 10.499 15.7748 10.499 15.4998V8.49976ZM13.499 8.49976C13.499 8.22476 13.274 7.99976 12.999 7.99976C12.724 7.99976 12.499 8.22476 12.499 8.49976V15.4998C12.499 15.7748 12.724 15.9998 12.999 15.9998C13.274 15.9998 13.499 15.7748 13.499 15.4998V8.49976Z" />
        </g>
    </symbol>

    <symbol id="trash-alt-slash" viewBox="0 0 20 20">
        <g>
            <path fill="currentColor" fill-rule="evenodd" d="M17.87,19.37A.62.62,0,0,0,18,18.5l-.17-.23,0-.05L5.58,1.55l0-.05L4.67.3A.67.67,0,0,0,3.76.15L3,.63a.61.61,0,0,0-.16.87L4,3H3a.77.77,0,0,0-.79.75v.87a.39.39,0,0,0,.4.38H5.46l.73,1H3.66a.39.39,0,0,0-.4.37V16.51A1.54,1.54,0,0,0,4.83,18h9.44a1.7,1.7,0,0,0,.64-.13l1.33,1.82a.67.67,0,0,0,.91.15ZM12.7,16a.53.53,0,0,0,.52-.43l-1.05-1.42v1.35A.52.52,0,0,0,12.7,16Zm-2.62-.5V11.3L9,9.87v5.64a.51.51,0,0,0,.52.5A.52.52,0,0,0,10.08,15.51Zm-4.2-7A.51.51,0,0,1,6.41,8a.51.51,0,0,1,.52.5v7a.51.51,0,0,1-.52.5.52.52,0,0,1-.53-.5Z"/>
            <path fill="currentColor" d="M7.78,2h3.65a.8.8,0,0,1,.7.41l.3.59H16.1a.76.76,0,0,1,.79.75v.87A.39.39,0,0,1,16.5,5H10Z"/>
            <path fill="currentColor" d="M10.72,6h4.73a.39.39,0,0,1,.39.37V13L13.22,9.42V8.51A.51.51,0,0,0,12.7,8a.52.52,0,0,0-.39.16Z"/>
        </g>
    </symbol>
</svg>