<?xml version="1.0" encoding="UTF-8"?>
<svg width="13px" height="15px" viewBox="0 0 13 15" version="1.1" xmlns="http://www.w3.org/2000/svg" xmlns:xlink="http://www.w3.org/1999/xlink">
    <!-- Generator: sketchtool 51.3 (57544) - http://www.bohemiancoding.com/sketch -->
    <title>E55BB4CA-5A0A-4921-BDAE-08B681852BFC</title>
    <desc>Created with sketchtool.</desc>
    <defs></defs>
    <g id="Page-1" stroke="none" stroke-width="1" fill="none" fill-rule="evenodd">
        <g id="1-Schedule" transform="translate(-22.000000, -174.000000)" fill="#000000" fill-rule="nonzero">
            <g id="Other" transform="translate(0.000000, -2.000000)">
                <path d="M31,177 L31,176 L32,176 L32,177 L34,177 C34.5522847,177 35,177.447715 35,178 L35,179 L22,179 L22,178 C22,177.447715 22.4477153,177 23,177 L25,177 L25,176 L26,176 L26,177 L31,177 Z M35,180 L35,190 C35,190.552285 34.5522847,191 34,191 L23,191 C22.4477153,191 22,190.552285 22,190 L22,180 L35,180 Z M25,183 L25,184 L26,184 L26,183 L25,183 Z M25,185 L25,186 L26,186 L26,185 L25,185 Z M25,187 L25,188 L26,188 L26,187 L25,187 Z M27,183 L27,184 L28,184 L28,183 L27,183 Z M27,185 L27,186 L28,186 L28,185 L27,185 Z M27,187 L27,188 L28,188 L28,187 L27,187 Z M29,183 L29,184 L30,184 L30,183 L29,183 Z M29,185 L29,186 L30,186 L30,185 L29,185 Z M29,187 L29,188 L30,188 L30,187 L29,187 Z M31,183 L31,184 L32,184 L32,183 L31,183 Z M31,185 L31,186 L32,186 L32,185 L31,185 Z M31,187 L31,188 L32,188 L32,187 L31,187 Z" id="schedule-icon"></path>
            </g>
        </g>
    </g>
</svg>